<mxfile host="app.diagrams.net" agent="Mozilla/5.0 (Windows NT 10.0; Win64; x64) AppleWebKit/537.36 (KHTML, like Gecko) Chrome/141.0.0.0 Safari/537.36" version="28.2.5">
  <diagram name="Página-1" id="NIeU-C4wY5gqcO9ultR9">
    <mxGraphModel dx="3613" dy="924" grid="1" gridSize="10" guides="1" tooltips="1" connect="1" arrows="1" fold="1" page="1" pageScale="1" pageWidth="827" pageHeight="1169" math="0" shadow="0">
      <root>
        <mxCell id="0" />
        <mxCell id="1" parent="0" />
        <mxCell id="kfpG5QN6w_avN0i1r3GU-1" style="edgeStyle=orthogonalEdgeStyle;rounded=0;orthogonalLoop=1;jettySize=auto;html=1;" edge="1" parent="1" source="kfpG5QN6w_avN0i1r3GU-3" target="kfpG5QN6w_avN0i1r3GU-6">
          <mxGeometry relative="1" as="geometry" />
        </mxCell>
        <mxCell id="kfpG5QN6w_avN0i1r3GU-2" style="edgeStyle=orthogonalEdgeStyle;rounded=0;orthogonalLoop=1;jettySize=auto;html=1;endArrow=none;endFill=0;" edge="1" parent="1" source="kfpG5QN6w_avN0i1r3GU-3">
          <mxGeometry relative="1" as="geometry">
            <mxPoint x="-575" y="280" as="targetPoint" />
          </mxGeometry>
        </mxCell>
        <mxCell id="kfpG5QN6w_avN0i1r3GU-3" value="INDEX HTML&lt;div&gt;(Página inicial)&lt;/div&gt;" style="rounded=0;whiteSpace=wrap;html=1;fillColor=#1ba1e2;fontColor=#ffffff;strokeColor=#006EAF;" vertex="1" parent="1">
          <mxGeometry x="-528" y="70" width="120" height="60" as="geometry" />
        </mxCell>
        <mxCell id="kfpG5QN6w_avN0i1r3GU-4" style="edgeStyle=orthogonalEdgeStyle;rounded=0;orthogonalLoop=1;jettySize=auto;html=1;entryX=0.5;entryY=0;entryDx=0;entryDy=0;" edge="1" parent="1" source="kfpG5QN6w_avN0i1r3GU-6" target="kfpG5QN6w_avN0i1r3GU-14">
          <mxGeometry relative="1" as="geometry" />
        </mxCell>
        <mxCell id="kfpG5QN6w_avN0i1r3GU-5" style="edgeStyle=orthogonalEdgeStyle;rounded=0;orthogonalLoop=1;jettySize=auto;html=1;entryX=0;entryY=0.5;entryDx=0;entryDy=0;" edge="1" parent="1" source="kfpG5QN6w_avN0i1r3GU-6" target="kfpG5QN6w_avN0i1r3GU-54">
          <mxGeometry relative="1" as="geometry" />
        </mxCell>
        <mxCell id="kfpG5QN6w_avN0i1r3GU-6" value="Página de Login" style="rounded=0;whiteSpace=wrap;html=1;fillColor=#1ba1e2;fontColor=#ffffff;strokeColor=#006EAF;" vertex="1" parent="1">
          <mxGeometry x="-528" y="210" width="120" height="40" as="geometry" />
        </mxCell>
        <mxCell id="kfpG5QN6w_avN0i1r3GU-7" style="edgeStyle=orthogonalEdgeStyle;rounded=0;orthogonalLoop=1;jettySize=auto;html=1;entryX=0.5;entryY=0;entryDx=0;entryDy=0;exitX=0;exitY=0.5;exitDx=0;exitDy=0;" edge="1" parent="1" source="kfpG5QN6w_avN0i1r3GU-14" target="kfpG5QN6w_avN0i1r3GU-15">
          <mxGeometry relative="1" as="geometry" />
        </mxCell>
        <mxCell id="kfpG5QN6w_avN0i1r3GU-8" style="edgeStyle=orthogonalEdgeStyle;rounded=0;orthogonalLoop=1;jettySize=auto;html=1;entryX=0.5;entryY=0;entryDx=0;entryDy=0;exitX=1;exitY=0.5;exitDx=0;exitDy=0;" edge="1" parent="1" source="kfpG5QN6w_avN0i1r3GU-14" target="kfpG5QN6w_avN0i1r3GU-18">
          <mxGeometry relative="1" as="geometry" />
        </mxCell>
        <mxCell id="kfpG5QN6w_avN0i1r3GU-9" style="edgeStyle=orthogonalEdgeStyle;rounded=0;orthogonalLoop=1;jettySize=auto;html=1;entryX=0.5;entryY=0;entryDx=0;entryDy=0;" edge="1" parent="1" source="kfpG5QN6w_avN0i1r3GU-14" target="kfpG5QN6w_avN0i1r3GU-28">
          <mxGeometry relative="1" as="geometry" />
        </mxCell>
        <mxCell id="kfpG5QN6w_avN0i1r3GU-10" style="edgeStyle=orthogonalEdgeStyle;rounded=0;orthogonalLoop=1;jettySize=auto;html=1;entryX=0.5;entryY=0;entryDx=0;entryDy=0;" edge="1" parent="1" source="kfpG5QN6w_avN0i1r3GU-14" target="kfpG5QN6w_avN0i1r3GU-31">
          <mxGeometry relative="1" as="geometry" />
        </mxCell>
        <mxCell id="kfpG5QN6w_avN0i1r3GU-11" style="edgeStyle=orthogonalEdgeStyle;rounded=0;orthogonalLoop=1;jettySize=auto;html=1;entryX=0.5;entryY=0;entryDx=0;entryDy=0;" edge="1" parent="1" source="kfpG5QN6w_avN0i1r3GU-14" target="kfpG5QN6w_avN0i1r3GU-25">
          <mxGeometry relative="1" as="geometry" />
        </mxCell>
        <mxCell id="kfpG5QN6w_avN0i1r3GU-12" style="edgeStyle=orthogonalEdgeStyle;rounded=0;orthogonalLoop=1;jettySize=auto;html=1;entryX=0.5;entryY=0;entryDx=0;entryDy=0;" edge="1" parent="1" source="kfpG5QN6w_avN0i1r3GU-14" target="kfpG5QN6w_avN0i1r3GU-34">
          <mxGeometry relative="1" as="geometry" />
        </mxCell>
        <mxCell id="kfpG5QN6w_avN0i1r3GU-13" style="edgeStyle=orthogonalEdgeStyle;rounded=0;orthogonalLoop=1;jettySize=auto;html=1;entryX=0.5;entryY=0;entryDx=0;entryDy=0;" edge="1" parent="1" source="kfpG5QN6w_avN0i1r3GU-14" target="kfpG5QN6w_avN0i1r3GU-50">
          <mxGeometry relative="1" as="geometry" />
        </mxCell>
        <mxCell id="kfpG5QN6w_avN0i1r3GU-14" value="Página principal (Cards de quizzes)" style="rounded=0;whiteSpace=wrap;html=1;fillColor=#1ba1e2;fontColor=#ffffff;strokeColor=#006EAF;" vertex="1" parent="1">
          <mxGeometry x="-528" y="330" width="120" height="60" as="geometry" />
        </mxCell>
        <mxCell id="kfpG5QN6w_avN0i1r3GU-15" value="Página de&lt;div&gt;Criação de Quiz&lt;/div&gt;" style="rounded=0;whiteSpace=wrap;html=1;fillColor=#1ba1e2;strokeColor=#006EAF;fontColor=#ffffff;" vertex="1" parent="1">
          <mxGeometry x="-668" y="450" width="120" height="50" as="geometry" />
        </mxCell>
        <mxCell id="kfpG5QN6w_avN0i1r3GU-16" style="edgeStyle=orthogonalEdgeStyle;rounded=0;orthogonalLoop=1;jettySize=auto;html=1;entryX=0.5;entryY=0;entryDx=0;entryDy=0;" edge="1" parent="1" source="kfpG5QN6w_avN0i1r3GU-18" target="kfpG5QN6w_avN0i1r3GU-22">
          <mxGeometry relative="1" as="geometry" />
        </mxCell>
        <mxCell id="kfpG5QN6w_avN0i1r3GU-17" style="rounded=0;orthogonalLoop=1;jettySize=auto;html=1;exitX=0.75;exitY=1;exitDx=0;exitDy=0;entryX=0.25;entryY=0;entryDx=0;entryDy=0;" edge="1" parent="1" source="kfpG5QN6w_avN0i1r3GU-18" target="kfpG5QN6w_avN0i1r3GU-36">
          <mxGeometry relative="1" as="geometry" />
        </mxCell>
        <mxCell id="kfpG5QN6w_avN0i1r3GU-18" value="Página de realização de um Quiz" style="rounded=0;whiteSpace=wrap;html=1;fillColor=#1ba1e2;strokeColor=#006EAF;fontColor=#ffffff;" vertex="1" parent="1">
          <mxGeometry x="-388" y="450" width="120" height="50" as="geometry" />
        </mxCell>
        <mxCell id="kfpG5QN6w_avN0i1r3GU-19" value="&lt;b&gt;&lt;font style=&quot;font-size: 14px;&quot;&gt;Fluxo do Professor&lt;/font&gt;&lt;/b&gt;" style="text;html=1;align=center;verticalAlign=middle;whiteSpace=wrap;rounded=0;" vertex="1" parent="1">
          <mxGeometry x="-805.5" y="300" width="75" height="30" as="geometry" />
        </mxCell>
        <mxCell id="kfpG5QN6w_avN0i1r3GU-20" value="Relatório Geral do Quiz" style="rounded=0;whiteSpace=wrap;html=1;fillColor=#d80073;strokeColor=#A50040;fontColor=#ffffff;" vertex="1" parent="1">
          <mxGeometry x="-905" y="730" width="120" height="60" as="geometry" />
        </mxCell>
        <mxCell id="kfpG5QN6w_avN0i1r3GU-21" style="edgeStyle=orthogonalEdgeStyle;rounded=0;orthogonalLoop=1;jettySize=auto;html=1;entryX=0.75;entryY=0;entryDx=0;entryDy=0;" edge="1" parent="1" source="kfpG5QN6w_avN0i1r3GU-22" target="kfpG5QN6w_avN0i1r3GU-40">
          <mxGeometry relative="1" as="geometry" />
        </mxCell>
        <mxCell id="kfpG5QN6w_avN0i1r3GU-22" value="Ranking de alunos (pontuação)" style="rounded=0;whiteSpace=wrap;html=1;fillColor=#d80073;strokeColor=#A50040;fontColor=#ffffff;" vertex="1" parent="1">
          <mxGeometry x="-388" y="620" width="120" height="60" as="geometry" />
        </mxCell>
        <mxCell id="kfpG5QN6w_avN0i1r3GU-23" value="Criar conta como aluno ou como professor" style="text;html=1;align=center;verticalAlign=middle;whiteSpace=wrap;rounded=0;" vertex="1" parent="1">
          <mxGeometry x="-460" y="170" width="110" height="30" as="geometry" />
        </mxCell>
        <mxCell id="kfpG5QN6w_avN0i1r3GU-24" style="edgeStyle=orthogonalEdgeStyle;rounded=0;orthogonalLoop=1;jettySize=auto;html=1;entryX=0.5;entryY=0;entryDx=0;entryDy=0;" edge="1" parent="1" source="kfpG5QN6w_avN0i1r3GU-25" target="kfpG5QN6w_avN0i1r3GU-57">
          <mxGeometry relative="1" as="geometry" />
        </mxCell>
        <mxCell id="kfpG5QN6w_avN0i1r3GU-25" value="Página de Gerenciamento de questões criadas" style="rounded=0;whiteSpace=wrap;html=1;fillColor=#1ba1e2;strokeColor=#006EAF;fontColor=#ffffff;" vertex="1" parent="1">
          <mxGeometry x="-985" y="450" width="120" height="50" as="geometry" />
        </mxCell>
        <mxCell id="kfpG5QN6w_avN0i1r3GU-26" style="rounded=0;orthogonalLoop=1;jettySize=auto;html=1;entryX=0.5;entryY=0;entryDx=0;entryDy=0;" edge="1" parent="1" source="kfpG5QN6w_avN0i1r3GU-28" target="kfpG5QN6w_avN0i1r3GU-36">
          <mxGeometry relative="1" as="geometry" />
        </mxCell>
        <mxCell id="kfpG5QN6w_avN0i1r3GU-27" style="rounded=0;orthogonalLoop=1;jettySize=auto;html=1;entryX=0.692;entryY=0;entryDx=0;entryDy=0;entryPerimeter=0;exitX=0.25;exitY=1;exitDx=0;exitDy=0;" edge="1" parent="1" source="kfpG5QN6w_avN0i1r3GU-28" target="kfpG5QN6w_avN0i1r3GU-22">
          <mxGeometry relative="1" as="geometry" />
        </mxCell>
        <mxCell id="kfpG5QN6w_avN0i1r3GU-28" value="Página de histórico de quizzes realizados" style="rounded=0;whiteSpace=wrap;html=1;fillColor=#1ba1e2;strokeColor=#006EAF;fontColor=#ffffff;" vertex="1" parent="1">
          <mxGeometry x="-225" y="450" width="120" height="50" as="geometry" />
        </mxCell>
        <mxCell id="kfpG5QN6w_avN0i1r3GU-29" style="rounded=0;orthogonalLoop=1;jettySize=auto;html=1;entryX=0.25;entryY=0;entryDx=0;entryDy=0;" edge="1" parent="1" source="kfpG5QN6w_avN0i1r3GU-31" target="kfpG5QN6w_avN0i1r3GU-40">
          <mxGeometry relative="1" as="geometry">
            <mxPoint x="-684.9999999999995" y="730" as="targetPoint" />
          </mxGeometry>
        </mxCell>
        <mxCell id="kfpG5QN6w_avN0i1r3GU-30" style="rounded=0;orthogonalLoop=1;jettySize=auto;html=1;entryX=0;entryY=0.25;entryDx=0;entryDy=0;" edge="1" parent="1" source="kfpG5QN6w_avN0i1r3GU-31" target="kfpG5QN6w_avN0i1r3GU-22">
          <mxGeometry relative="1" as="geometry" />
        </mxCell>
        <mxCell id="kfpG5QN6w_avN0i1r3GU-31" value="Página de Visualização de&amp;nbsp; Quizzes criados" style="rounded=0;whiteSpace=wrap;html=1;fillColor=#1ba1e2;strokeColor=#006EAF;fontColor=#ffffff;" vertex="1" parent="1">
          <mxGeometry x="-828" y="450" width="120" height="50" as="geometry" />
        </mxCell>
        <mxCell id="kfpG5QN6w_avN0i1r3GU-32" style="edgeStyle=orthogonalEdgeStyle;rounded=0;orthogonalLoop=1;jettySize=auto;html=1;entryX=0.25;entryY=0;entryDx=0;entryDy=0;" edge="1" parent="1" target="kfpG5QN6w_avN0i1r3GU-14">
          <mxGeometry relative="1" as="geometry">
            <mxPoint x="-575" y="460" as="targetPoint" />
            <mxPoint x="-575" y="250" as="sourcePoint" />
            <Array as="points">
              <mxPoint x="-575" y="290" />
              <mxPoint x="-498" y="290" />
            </Array>
          </mxGeometry>
        </mxCell>
        <mxCell id="kfpG5QN6w_avN0i1r3GU-33" value="Página de Edição de um Quiz criado" style="rounded=0;whiteSpace=wrap;html=1;fillColor=#1ba1e2;fontColor=#ffffff;strokeColor=#006EAF;" vertex="1" parent="1">
          <mxGeometry x="-825" y="580" width="120" height="50" as="geometry" />
        </mxCell>
        <mxCell id="kfpG5QN6w_avN0i1r3GU-34" value="Dashboard de desempenho geral do aluno" style="rounded=0;whiteSpace=wrap;html=1;fillColor=#d80073;strokeColor=#A50040;fontColor=#ffffff;" vertex="1" parent="1">
          <mxGeometry x="-65" y="450" width="120" height="50" as="geometry" />
        </mxCell>
        <mxCell id="kfpG5QN6w_avN0i1r3GU-35" style="edgeStyle=orthogonalEdgeStyle;rounded=0;orthogonalLoop=1;jettySize=auto;html=1;entryX=0.477;entryY=-0.02;entryDx=0;entryDy=0;entryPerimeter=0;" edge="1" parent="1" source="kfpG5QN6w_avN0i1r3GU-31" target="kfpG5QN6w_avN0i1r3GU-33">
          <mxGeometry relative="1" as="geometry" />
        </mxCell>
        <mxCell id="kfpG5QN6w_avN0i1r3GU-36" value="Revisão de Questões acertadas e erradas&lt;div&gt;(histórico)&lt;/div&gt;" style="rounded=0;whiteSpace=wrap;html=1;fillColor=#1ba1e2;strokeColor=#006EAF;fontColor=#ffffff;" vertex="1" parent="1">
          <mxGeometry x="-140" y="650" width="120" height="60" as="geometry" />
        </mxCell>
        <mxCell id="kfpG5QN6w_avN0i1r3GU-37" style="edgeStyle=orthogonalEdgeStyle;rounded=0;orthogonalLoop=1;jettySize=auto;html=1;entryX=0.457;entryY=-0.051;entryDx=0;entryDy=0;entryPerimeter=0;" edge="1" parent="1" source="kfpG5QN6w_avN0i1r3GU-31" target="kfpG5QN6w_avN0i1r3GU-20">
          <mxGeometry relative="1" as="geometry">
            <Array as="points">
              <mxPoint x="-850" y="475" />
            </Array>
          </mxGeometry>
        </mxCell>
        <mxCell id="kfpG5QN6w_avN0i1r3GU-38" value="- Ranking de alunos (tabela)&lt;div&gt;- Total de alunos que realizaram&lt;div&gt;- Questão mais fácil&lt;/div&gt;&lt;div&gt;- Questão mais difícil&lt;/div&gt;&lt;div&gt;&lt;span style=&quot;background-color: transparent; color: light-dark(rgb(0, 0, 0), rgb(255, 255, 255));&quot;&gt;- Gráfico de barras de acertos (Y) em cada questão (X) do quiz&lt;/span&gt;&lt;/div&gt;&lt;/div&gt;" style="text;html=1;align=left;verticalAlign=middle;whiteSpace=wrap;rounded=0;fontSize=9;" vertex="1" parent="1">
          <mxGeometry x="-918" y="785" width="158" height="100" as="geometry" />
        </mxCell>
        <mxCell id="kfpG5QN6w_avN0i1r3GU-39" value="&lt;div&gt;- Ranking de alunos (tabela ou gráfico ranking)&lt;/div&gt;" style="text;html=1;align=left;verticalAlign=middle;whiteSpace=wrap;rounded=0;fontSize=9;" vertex="1" parent="1">
          <mxGeometry x="-388" y="690" width="163" height="20" as="geometry" />
        </mxCell>
        <mxCell id="kfpG5QN6w_avN0i1r3GU-40" value="Relatório pessoal do aluno" style="rounded=0;whiteSpace=wrap;html=1;fillColor=#d80073;strokeColor=#A50040;fontColor=#ffffff;" vertex="1" parent="1">
          <mxGeometry x="-548" y="725" width="120" height="60" as="geometry" />
        </mxCell>
        <mxCell id="kfpG5QN6w_avN0i1r3GU-41" value="- Total de acertos do aluno (Pontuação)&lt;div&gt;- Posição no ranking do relatório&lt;br&gt;&lt;div&gt;&lt;span style=&quot;background-color: transparent; color: light-dark(rgb(0, 0, 0), rgb(255, 255, 255));&quot;&gt;- Gráfico de barras com acertos (Y) por nível de dificuldade das questões (X)&lt;/span&gt;&lt;/div&gt;&lt;/div&gt;" style="text;html=1;align=left;verticalAlign=middle;whiteSpace=wrap;rounded=0;fontSize=9;" vertex="1" parent="1">
          <mxGeometry x="-569.5" y="790" width="163" height="70" as="geometry" />
        </mxCell>
        <mxCell id="kfpG5QN6w_avN0i1r3GU-42" value="- Total de quizzes realizados&lt;div&gt;&lt;span style=&quot;background-color: transparent; color: light-dark(rgb(0, 0, 0), rgb(255, 255, 255));&quot;&gt;- Gráfico de linhas da nota (Y) no decorrer dos dias (X)&lt;/span&gt;&lt;/div&gt;&lt;div&gt;&amp;nbsp; &amp;nbsp; &amp;nbsp; - Opção de filtrar por área e por escolaridade&lt;/div&gt;" style="text;html=1;align=left;verticalAlign=middle;whiteSpace=wrap;rounded=0;fontSize=9;" vertex="1" parent="1">
          <mxGeometry x="-65" y="500" width="163" height="60" as="geometry" />
        </mxCell>
        <mxCell id="kfpG5QN6w_avN0i1r3GU-43" value="" style="verticalLabelPosition=bottom;shadow=0;dashed=0;align=center;html=1;verticalAlign=top;strokeWidth=1;shape=mxgraph.mockup.graphics.lineChart;strokeColor=none;strokeColor2=#666666;strokeColor3=light-dark(#d80073, #229afd);strokeColor4=#dddddd;" vertex="1" parent="1">
          <mxGeometry x="98" y="455" width="63" height="55" as="geometry" />
        </mxCell>
        <mxCell id="kfpG5QN6w_avN0i1r3GU-44" value="Legenda" style="shape=table;startSize=30;container=1;collapsible=0;childLayout=tableLayout;fontSize=16;align=left;verticalAlign=middle;fillColor=none;strokeColor=none;fontColor=#4D4D4D;fontStyle=1;spacingLeft=6;spacing=0;resizable=0;" vertex="1" parent="1">
          <mxGeometry x="-870" y="90" width="180" height="90" as="geometry" />
        </mxCell>
        <mxCell id="kfpG5QN6w_avN0i1r3GU-45" value="" style="shape=tableRow;horizontal=0;startSize=0;swimlaneHead=0;swimlaneBody=0;strokeColor=inherit;top=0;left=0;bottom=0;right=0;collapsible=0;dropTarget=0;fillColor=none;points=[[0,0.5],[1,0.5]];portConstraint=eastwest;fontSize=12;" vertex="1" parent="kfpG5QN6w_avN0i1r3GU-44">
          <mxGeometry y="30" width="180" height="30" as="geometry" />
        </mxCell>
        <mxCell id="kfpG5QN6w_avN0i1r3GU-46" value="Página HTML" style="shape=partialRectangle;html=1;whiteSpace=wrap;connectable=0;strokeColor=inherit;overflow=hidden;fillColor=light-dark(#1ba1e2, #9fbce9);top=0;left=0;bottom=0;right=0;pointerEvents=1;fontSize=12;align=left;fontColor=#FFFFFF;gradientColor=none;spacingLeft=10;spacingRight=4;" vertex="1" parent="kfpG5QN6w_avN0i1r3GU-45">
          <mxGeometry width="180" height="30" as="geometry">
            <mxRectangle width="180" height="30" as="alternateBounds" />
          </mxGeometry>
        </mxCell>
        <mxCell id="kfpG5QN6w_avN0i1r3GU-47" value="" style="shape=tableRow;horizontal=0;startSize=0;swimlaneHead=0;swimlaneBody=0;strokeColor=inherit;top=0;left=0;bottom=0;right=0;collapsible=0;dropTarget=0;fillColor=none;points=[[0,0.5],[1,0.5]];portConstraint=eastwest;fontSize=12;" vertex="1" parent="kfpG5QN6w_avN0i1r3GU-44">
          <mxGeometry y="60" width="180" height="30" as="geometry" />
        </mxCell>
        <mxCell id="kfpG5QN6w_avN0i1r3GU-48" value="Relatório" style="shape=partialRectangle;html=1;whiteSpace=wrap;connectable=0;strokeColor=#A50040;overflow=hidden;fillColor=#d80073;top=0;left=0;bottom=0;right=0;pointerEvents=1;fontSize=12;align=left;fontColor=#ffffff;spacingLeft=10;spacingRight=4;gradientColor=none;" vertex="1" parent="kfpG5QN6w_avN0i1r3GU-47">
          <mxGeometry width="180" height="30" as="geometry">
            <mxRectangle width="180" height="30" as="alternateBounds" />
          </mxGeometry>
        </mxCell>
        <mxCell id="kfpG5QN6w_avN0i1r3GU-49" style="edgeStyle=orthogonalEdgeStyle;rounded=0;orthogonalLoop=1;jettySize=auto;html=1;entryX=0.5;entryY=0;entryDx=0;entryDy=0;" edge="1" parent="1" source="kfpG5QN6w_avN0i1r3GU-50" target="kfpG5QN6w_avN0i1r3GU-56">
          <mxGeometry relative="1" as="geometry" />
        </mxCell>
        <mxCell id="kfpG5QN6w_avN0i1r3GU-50" value="Página de Banco completo de Questões (por área)" style="rounded=0;whiteSpace=wrap;html=1;fillColor=#1ba1e2;strokeColor=#006EAF;fontColor=#ffffff;" vertex="1" parent="1">
          <mxGeometry x="-1140" y="450" width="120" height="50" as="geometry" />
        </mxCell>
        <mxCell id="kfpG5QN6w_avN0i1r3GU-51" value="" style="verticalLabelPosition=bottom;shadow=0;dashed=0;align=center;html=1;verticalAlign=top;strokeWidth=1;shape=mxgraph.mockup.graphics.barChart;strokeColor=none;strokeColor2=none;strokeColor3=#666666;fillColor2=#008cff;fillColor3=#dddddd;" vertex="1" parent="1">
          <mxGeometry x="-1040" y="725" width="100" height="70" as="geometry" />
        </mxCell>
        <mxCell id="kfpG5QN6w_avN0i1r3GU-52" value="" style="verticalLabelPosition=bottom;shadow=0;dashed=0;align=center;html=1;verticalAlign=top;strokeWidth=1;shape=mxgraph.mockup.graphics.barChart;strokeColor=none;strokeColor2=none;strokeColor3=#666666;fillColor2=light-dark(#d80073, #229afd);fillColor3=#dddddd;" vertex="1" parent="1">
          <mxGeometry x="-406.5" y="730" width="100" height="60" as="geometry" />
        </mxCell>
        <mxCell id="kfpG5QN6w_avN0i1r3GU-53" style="edgeStyle=orthogonalEdgeStyle;rounded=0;orthogonalLoop=1;jettySize=auto;html=1;entryX=0.75;entryY=0;entryDx=0;entryDy=0;" edge="1" parent="1" source="kfpG5QN6w_avN0i1r3GU-54" target="kfpG5QN6w_avN0i1r3GU-14">
          <mxGeometry relative="1" as="geometry">
            <Array as="points">
              <mxPoint x="-238" y="270" />
              <mxPoint x="-438" y="270" />
            </Array>
          </mxGeometry>
        </mxCell>
        <mxCell id="kfpG5QN6w_avN0i1r3GU-54" value="Página de Cadastro" style="rounded=0;whiteSpace=wrap;html=1;fillColor=#1ba1e2;fontColor=#ffffff;strokeColor=#006EAF;" vertex="1" parent="1">
          <mxGeometry x="-298" y="210" width="120" height="40" as="geometry" />
        </mxCell>
        <mxCell id="kfpG5QN6w_avN0i1r3GU-55" value="&lt;b&gt;&lt;font style=&quot;font-size: 14px;&quot;&gt;Fluxo do Aluno&lt;/font&gt;&lt;/b&gt;" style="text;html=1;align=center;verticalAlign=middle;whiteSpace=wrap;rounded=0;" vertex="1" parent="1">
          <mxGeometry x="-215" y="300" width="75" height="30" as="geometry" />
        </mxCell>
        <mxCell id="kfpG5QN6w_avN0i1r3GU-56" value="Página de Criação de Questões para o banco" style="rounded=0;whiteSpace=wrap;html=1;fillColor=#1ba1e2;strokeColor=#006EAF;fontColor=#ffffff;" vertex="1" parent="1">
          <mxGeometry x="-1140" y="580" width="120" height="50" as="geometry" />
        </mxCell>
        <mxCell id="kfpG5QN6w_avN0i1r3GU-57" value="Editar uma questão criada (apenas o professor criador)" style="rounded=0;whiteSpace=wrap;html=1;fillColor=#1ba1e2;strokeColor=#006EAF;fontColor=#ffffff;" vertex="1" parent="1">
          <mxGeometry x="-985" y="580" width="120" height="50" as="geometry" />
        </mxCell>
        <mxCell id="kfpG5QN6w_avN0i1r3GU-58" value="" style="shape=image;verticalLabelPosition=bottom;labelBackgroundColor=default;verticalAlign=top;aspect=fixed;imageAspect=0;image=data:image/png,iVBORw0KGgoAAAANSUhEUgAAAgAAAAIACAYAAAD0eNT6AAAABHNCSVQICAgIfAhkiAAAAAlwSFlzAAAN1wAADdcBQiibeAAAABl0RVh0U29mdHdhcmUAd3d3Lmlua3NjYXBlLm9yZ5vuPBoAACAASURBVHic7L132C3HXef5rT7pjfdKNydlWcmSHOWMjYMwMsYMGDMGZtjRDszA7MPDMATvMDPrZR6GbGABr5cFVvMQHAk2BstwjXOUfJ0kWbZyujm89w0nn9O1f3RXd1V39Qnv6T6pvx9b7+1TVV1VXV31+/66urtaSClBCCGEkHzhTLoChBBCCBk/dAAIIYSQHEIHgBBCCMkhdAAIIYSQHEIHgBBCCMkhdAAIIYSQHEIHgBBCCMkhdAAIIYSQHEIHgBBCCMkhdAAIIYSQHEIHgBBCCMkhdAAIIYSQHEIHgBBCCMkhdAAIIYSQHEIHgBBCCMkhdAAIIYSQHEIHgBBCCMkhdAAIIYSQHEIHgBBCCMkhdAAIIYSQHEIHgBBCCMkhdAAIIYSQHEIHgBBCCMkhdAAIIYSQHEIHgBBCCMkhdAAIIYSQHEIHgBBCCMkhdAAIIYSQHEIHgBBCCMkhdAAIIYSQHEIHgBBCCMkhdAAIIYSQHEIHgBBCCMkhdAAIIYSQHEIHgBBCCMkhdAAIIYSQHEIHgBBCCMkhdAAIIYSQHEIHgBBCCMkhdAAIIYSQHEIHgBBCCMkhdAAIIYSQHEIHgBBCCMkhdAAIIYSQHEIHgBBCCMkhdAAIIYSQHEIHgBBCCMkhdAAIIYSQHEIHgBBCCMkhdAAIIYSQHEIHgBBCCMkhdAAIIYSQHEIHgBBCCMkhdAAIIYSQHEIHgBBCCMkhdAAIIYSQHEIHgBBCCMkhdAAIIYSQHEIHgBBCCMkhdAAIIYSQHEIHgBBCCMkhdAAIIYSQHEIHgBBCCMkhdAAIIYSQHEIHgBBCCMkhdAAIIYSQHEIHgBBCCMkhdAAIIYSQHEIHgBBCCMkhdAAIIYSQHEIHgBBCCMkhdAAIIYSQHEIHgBBCCMkhdAAIIYSQHEIHgBBCCMkhdAAIIYSQHEIHgBBCCMkhdAAIIYSQHEIHgBBCCMkhdAAIIYSQHEIHgBBCCMkhdAAIIYSQHEIHgBBCCMkhdAAIIYSQHEIHgBBCCMkhdAAIIYSQHEIHgBBCCMkhdAAIIYSQHEIHgBBCCMkhdAAIIYSQHEIHgBBCCMkhdAAIIYSQHEIHgBBCCMkhdAAIIYSQHEIHgBBCCMkhdAAIIYSQHEIHgBBCCMkhdAAIIYSQHEIHgBBCCMkhdAAIIYSQHEIHgBBCCMkhdAAIIYSQHEIHgBBCCMkhdAAIIYSQHFKcdAUImRR33X17EcArAbwUwCH/v8MAVgGICVaNZMMGgBMAjvv/fgHAp++842hnorUiZEIIKeWk60DI2Ljr7tsFgDcAeAuA7wWwa7I1IhPmAoAPA/gAgI/cecdRGkSSG+gAkNxw1923vw7ArwF44aTrQqaSLwP4z3fecfRjk64IIeOADgCZe+66+/YrAPwJgNdNui5kJvgYgB+/846jT066IoRkCR0AMtfcdfftLwfwNwD2TbouZKY4A+AH7rzj6OcmXRFCsoJvAZC55a67b/83AD4Oij8Znn0APu73IULmEs4AkLnkrrtvfwuA90+6HmQu+KE77zj6gUlXgpC0oQNA5o677r79uQA+B2Bp0nUhc0ENwMvvvOPo1yZdEULShA4AmSvuuvv2PfCe5r5i0nUhc8WTAF545x1Hz026IoSkBZ8BIPPGr4DiT9LnCnh9i5C5gTMAZG646+7bbwBwH7jCJcmGDoBb7rzj6LcmXRFC0oAzAGSe+HVQ/El2FOH1MULmAs4AkLngrrtvfxaAhyZdD5ILrrvzjqMPT7oShIwKZwDIvPD9k64AyQ3sa2QuoANA5oV/MekKkNzAvkbmAt4CIDPPXXffvh/ASfATvmQ8SAAH77zj6OlJV4SQUeAMAJkHbgTFn4wPAa/PETLT0AEg88DBSVeA5A72OTLz0AEg88CBSVeA5A72OTLz0AEg8wCNMRk37HNk5qEDQOaByqQrQHIH+xyZeegAEEIIITmEDgAhhBCSQ+gAEEIIITmEDgAhhBCSQ+gAEEIIITmEDgAhhBCSQ+gAEEIIITmEDgAhhBCSQ+gAEELI0PArqmT2oQNACCFDQfEn8wEdAEIIGRhP/CV9ADIH0AEghJCBoPiT+YIOACGE9IXiT+YPOgCEENITij+ZT+gAEEJIIkniT2+AzD50AAghxArFn8w3dAAIISQGxZ/MP3QACCHEgOJP8gEdAEIICaD4k/xAB4AQQgAMI/58I4DMA3QACCFkaPGnB0BmHzoAhJCcQ/En+YQOACEkx1D8SX6hA0AIySkUf5Jv6AAQQnIIxZ8QOgCEkJxB8ScEoANACMkVFH9CFHQACCE5IT3xl1wIgMwBdAAIITmA4k9IFDoAhJA5h+JPiA06AISQOYbiT0gSdAAIIXMKxZ+QXtABIITMIRR/QvpBB4AQMmdQ/AkZBDoAhJA5YlziT8eAzD50AAghc8IYxZ/6T+YAOgCEkDlgvOJP/SfzAB0AQsiMQ/EnZDvQASCEzDAUf0K2Cx0AQsiMQvEnZBToABBCZhCKPyGjQgeAEDJjUPwJSQM6AISQGWJaxJ9uAZl96AAQQmaEKRJ/6j+ZA+gAEEJmAIo/IWlDB4AQMuVMn/jTByDzAB0AQsgUQ/EnJCvoABBCphSKPyFZQgeAEDKFUPwJyRo6AISQKWMWxJ/uAJl96AAQQqaIGRF/6j+ZA+gAEEKmBIo/IeOEDgAhZAqg+BMybugAEEImDMWfkElAB4AQMkFmU/zpC5B5gA4AIWRCUPwJmSTFSVcgibcfc0sADgBYnnRd8oyUgIQUUkpICeH6/0pIL05K4dlmKcK0gAS8fQChbKiUUvh5Ct/0C99uC+mHA76BDbbVPkIAEhLev94+AlJK8TKsLhexOc5mISND8Sdk0kyFA/D2Y+4SgNsBvAnA8wAcBrAX8ESATBuBosMXeeUMIHQMAN9Z0MKiaS3bKm3wW5Uj4GrGPEgD4GLphq/vwb0TagsyPPMg/nQFyOwzUQfg7cfcFwP4JQDfBWBhknUhMwrt8IwxJ+LPfkfmgIk4AG8/5l4L4FcBvGUS5ZPZhrZ3VqH4EzJNjN0BePsx9+cA/BqA0rjLJrMPbe+sQvEnZNoYmwPw9mNuGcAfAfg34yqTEDINUPwJmUbG4gC8/Zi7A8BHALx8HOWR+cNme2mPZwGKPyHTSubrALz9mFsA8F5Q/Mk2kbEN2uPZYH7Fn/2PzAPjWAjoHQDuGEM5hJCpYd7Fny4AmX0ydQDefsz9VwB+JssySA7oY2tpiqcNij8hs0BmDsDbj7mLAH4jq/zJfDPotD9N8bSRE/FnxyNzQJYzAP8RwKEM8yfzDo3sjEHxJ2SWyOQtgLcfc3cBeFsWeZP5xnbl3z8xSZM9KzfjWUe+G/t33Yjlpd1Y23gaFzefxuMnP4VT6/ckiDPFn5BZI6vXAN8MYGdGeZM5Zahpfxri1HFECc+7+sdx63U/YITv330D9u++AddfeTvW1p/C5+77fZzd/LqWguJPyCyS1S2AN2WUL5lTKP6TpeAs4NXP+eWY+Ee5dOfluONlv4Y9q7f6IRR/QmaV1B0A/8t+r0s7XzK/DGVbaYhTp+gs4bXP/RVcfvC2gdIXnBLueOmvodP0fudR/NkNyTyQxQzAq8Av+5EBGerKf4AwMhylwjJuf8Gv4fD+5wy1X7FQxkrpKmxtbEZi8iL+7H1k9snCAbgqgzzJHDKoCbXph7RskeEoF3fg9S/8LRzYc9O29r/i4G04ffI4qpvKCaD4EzJLZOEA8NU/0hfblf8IuZAhqRQvxR23vQN7dz1r23mUSosAgDOnjqO6tRGLn2vxZ9cjc0AWDsDhDPIkcwTFf7IslvbgDS/5Hey65MpU8pMSOHPyJKpbm0YYxZ+Q6SYLB2BfBnmSOWGoaf/EMG2Lxngolsr78T0v/T1csnoktTyFAACJs6dOorq1RfEnZEbIwgEoZJAnmQMGvfLvox9km6xUDuONL/09rC7vTy1PT/wBQEBK4Oypk6htRR8MDKH4EzI9jONrgIQMJ/4DhJHhWF24Am982e9heWlPBrkHXgAkJM6ePoVadSuWiuJPyHRBB4BkzlDT/omG3LZFBmHn4jX43pf/LhYXLskgd2Fsql/nIk7A/Ik/eyGZfegAkPEgrZtmWE9DnhxGkrl06Xq88eW/g0p5NduCAvH3/koA506fRq26NZfiz35I5gE6ACR7tjHtb42l1R2KPSs3440vfwfKpaVsC4qIvz4pcO7MadSr1YQdKf6ETBI6ACQTBr167/3AX+9pfxriZPbveB7e8LLfRLFYybagBPEXakMC58+esTgBMy7+7HxkDqADQFInnQf+el/50/4mc/CSF+O7X/qrKBRK2RbUT/z9MAnpOQE15QRQ/AmZBugAkFQZRfxHS0gA4Miu78DrX/Lf4ThZfek7Sm/x1zl/9qznBFD8CZkK6ACQ1LAZyQFm95PT0dgOxZFdr8TrXvzfIMS4hvVg4h+GS1w4exa1Wi0hP4o/IeOEDgBJhUHFf9Bp/4H2pUEO2LtyC177ol8yRXgcDCr+Ar5GS6ydO4t6zAmg+BMybugAkJFJ58pf2xrknj8NcsCOhSvwXS/5FThiMotwDir+3k8vbO38OTTqygmYRfFnBySzDx0AMhJDXfkPMu3fq4xhd8wJr7j157N/1c+KHFr89TUD186dQ6NepfgTMiHoAJBtk474D3/lT/MbUnSWsG/39RMpe9vi7//2bgecR6NenznxZx8k8wAdALIthrq/P4D4Jxvr7YXlhUuWr9nWff8HHv6H9CqxDfHXZw/WLnhOQMgMiH+eOx2ZG+gAkKEZ9MGoVMU/oay82+E9O24Yep+TZx/ABz/2C+lUYETx95C4GDgBFH9CxgUdADIUQ037J4b12XnYuuSYTrcxVPp64yLe/eF/i3a3mWo9ti3+2oOB62vRmQCKPyFZQgeADMzUXvnn2Chf3Hp84LSu7OJ9H/kprG08k2od0hB/wNt3fW0NzUZd/YQRSfEnJFXoAJCBGOrKv+cUbnLgtu7v59woX6w9gnpzfaC0Rz/363jkqc+kWn5a4h9sSYn1tTU0GvrMxjSKf847HpkL6ACQvqQj/trWgFf+NLH96bgN3HP/n/ZNd//Df4/PfPldwe90lgtKWfwBQAhIABsXL6DZaIDiT0h20AEgPZmI+PerCzF44uxRPHP6q4nxp89/C3/zT/8p+C3SXCwwZfFXSAlsXFxDsx5/xoHiT0g60AEgiQwq/raItK/8aXaTcWUHR4/9Z3zz0btjcQ8++lH86QfeglbbW3VPmAo9GhmJf/BTSmysX0SzGToBUyP+7JBkDhjXJ8PIjJH6lX+vMrYRRiKILj7/4G/hE/f8Ng7vfQHKpSU8feoYnj4ZzgykKv5AxuIfJtq8eBG45BKUKwuYFvFnnyTzAB0AEmNS9/wHrRiNr51CwcHCahffePiv0Wo2YAhu2uIfZJWl+HtxEsDm+jpWdwLlSoXiT0hK8BYAMRhK/PvnMtI9/945ExOvZYRTwKEjl/tXyx5W8U/JD8ha/BUSEpvr62g14usXUPwJ2R50AEhAOlf+WtiAV/V9HYwe+dAgA4GA+Y3hFAo4eORyVCqVRPFPQ//HJf5hfSU2N9bRaoZOAMWfkO1DB4AASH/av2cZWsAo9/xpkIGo+CsKBQcHj1zmTZlbxT/NKYBxiH8Yt7W5gVazOWHxZ+8jsw+fAZgQBSFRcSTKDrDgAJWCRNsVaHSBhgs0XYGuTPN9rWRSF/8RrvwTMt9e/NxjF38V7hQKOHj4Mpw8/ox31Zy2+Ad5jU/8AQBSYmtzA8tiFeWy/ZkAij8h/aEDkDECwM6iiyPLElevCly5w8GOskCp0H/ypdmV2GxJnG9IPLLu4qkt4EyzADfF+k2T+I8yG5A/eou/wikUcODQEZw68QzarSaMxXtSqsc4xV8AkP6O1Y1NiFWBUrkcqxPFn5D+0AHIgJKQuG6Hi2tWBa6/tICV8vaauVIQqCwK7FkErr+0AMBzCh5a6+KRdYknqgIX29u/i5P6Pf9t18R+zz8xv9zb4MHEX6VxCg4OHDqM0yeOo9VqpfwiwGTEX5W7tbmBldUdmhMwJvHPfR8k8wAdgBRZLUo8b5eLlx8sYqFYyKSMSkHglj1F3LLH+33fuQ4+fUriTHO48tK+8h/IHo74IJXdaOeN4cRfvx2w/9BhnD55Aq1W0xTuNJiA+CuqW5tYXllFqVyi+BMyBHQAUmBvpYuX7hV4/r4ihMhG+JNQzsCDF7r41EmJk43+MwKpi79l5wH0aYCdkqPyaYO3J/4Kp1DA/oOHcPrkCchuitWaoPgD3rFWtzaxtLLizQSMQfzz2f/IvEEHYAQqQuK7Dku8cH9p0lXBjbsKuHEX8PDFLv7xGYmzTbsjMBHxTwizMUhd8ml8RxN/hVMoYN+Bg7hw9kI61Zqw+AMCQnjT/rWtLc8JKMWfCQj+UvwJCaADsE0uW+ziLdcUsbMynif1B+VZlxRw9U7g7x9v46trBcNYTerKv69DMIRhzafxTUf8vXgJp1DAnv0HRq/WFIm/2i/uBGQl/vnsiWS+oAMwJEUh8eoDLl5xaPJX/UkUBPB9V5dwzfkO/u5pgWZXTK/49wjrHTFQ9ByQrvgrHCeNJUCmR/z1FLVqFUvLAqWSZ94o/oTYoQMwBDtLLn7sWQ72LE6v+OvcvLuIIysu3vOI6z0bMG3i3+PKv4+W9Sh4nshG/NNmmsQf8MqrV7eA5WUUSyWKPyEJcCXAAdlZcvHj1xewZ3G2muySioOfvKmIW3eGT31NhfgPWZf8QfHflvhDAEICkKhVq+i02pF4ij8hitlSswmhxH/HlN3vHxQhgDdfW8KzVjrTIf797vn3manoHTEPUPxHEX+VAwDUa1V02soJSFH857r/kbzAWwB9mHXxVwgAP3J9GX98fwvHm+Fpn5T4JzKI+M814xL/FFt3SsVfpanXa1jEonc7AEhF/G9+6AW3dn/pA39XcJw0F+Yk04425pLtWtiBJFAFcML/7zik/Krz6z/0cPYVHQw6AD1YKcq5EH9FQQD/600l/OE3WljrlqZq2j8aMdR+c8MYxT+txpxy8QcEICXq9ToWBVAslGytGdvsd+W/cH7pwENnH77x+iufBUdwIjUXDC/+kf29EPd/f/+3APwdgA86v/5DX0i/ooPDntuDNxzB3Ii/olwQ+Pc3l1GR7W2Lf4wRr/z7aFkkzbzekR2v+GfRdlMp/pB+gESjVke704nsP7z4q9D16joeevIRuJKTAHNPSuLvcwOAX5QSn+++7f0f777tfS9Ms6rDQAcggWtXunj27vGu6jculksC//amEjZq0e+qR7ZSFv/EdANf+VP8Kf7RjAcRf0BI71XYRr2GTuAEbF/8VY3Wt9bx8FN0AuaadMU/EiRfDeCe7tve9+7u296XwuIcw0EHwELZkfi+q+b77sjBZQcv2gusVZt2gU1r2n9E8bclpPgn5ETx13M3xV/LoFmvo9vR3g4YWvy1eCGwXt3Ew08/SidgHslW/NWGAPDDkLi3+4vve94ItR2a+Va5bfKq/S52lLO5+r/YdPHAuQ4eONfBYxe72Gy72Gq7qLclFooOVsoCqyWBSxcd3LSriOftL+Gy1Wzq8ubrFvCpZ9axBuDS5XD51LGJf6/8E2Ip/gk5Ufz13BPF39uUaDTqWFhYRKGgLRYU2dJ/xuIFACEghFe/za0NPPL0Y7j2sqv5TMC8MB7x138eAfDZ7i++938p/OZb/2r4Cg8PHYAIO0vZrPL34PkOPvRIA/eebEfspeoIAtW2RK0tcUYAuNjFl0+28GcPCOxedHDH1RXccVUFlUJ6zyQsFgV++IZF/NHXawAkLl2uTORVv94M6hrMGrMv/ir72RL/cKNRb2BhYQFOUZnBIa78AanEX9Vio7qBR595DNccoRMw84xf/NWPJQm8v/ML731r8bfe+v5hqrwd2EsjXL+arqk8W3fxf3x2E//ls5u4p4f4Qw8POp+AEMD5hou/+GYdP/3PG/inJ5pIk1dfVsGVOwu4sNnE2lY876yv/G300bvhMptK5kT8gZkVfxXZaDbQ7XYwpPhDwBR/7/8CG9UtPHb8cd4OmGUmJ/6qaAHgf3Z+4b23DVznbUIHIMLz96U33f7Z4y387Mc3cP/5jjFzOIz466nWGi7++Bs1vPOrVXRTsupCAG+9YRESwPmtJi5WbQ8GhgEji7+MJU3Oay6ZFvFPq6VnV/zV72ajgW5X+z5yH/E3xrIm/t4tAWCzuonHjz8BN8NFmEhGTF78FYsAPtT5hfce7l/p7UMHQOPSkouDy+k0yaeebuF37q2i1pGmwdim+CuEAD75dAu/8aUtNFPyAm7dU8Ji0TO6F3wnIG3xj0b0TpNoevvsPO1Mkfin0oazL/6KVtN3AgYU/7BepvgHtwNqm3jixBOZrsRIUmZ6xF9xEFL+QY8ajwwdAI3rd6QzWO8/18Y7v1rVRD098Ze+rfvamTb+n6/VUqlvwQGevz987iE6EzAO8bcZ3EHFfzZM7LyJf4QZFn81LFv+TMBg4i8TxT+8HbCJx+kEzAbTJ/4qg+/v/Px7XppQ65GhA6Bx657Rp/+bXYnf+XINHYnMxF/xueMtfPypdJ4JeKHvAEi/4LVqExdrzfGJ/wBX/rNrRqdP/FNty1kXf+1Xq9n0bwckG205gPirI9qsVfHEySfpBEwz0yv+apfftKRIBToAGvuWRm+Of3i0iYtNN3PxV3vddX8dZ2ujP3D03H0lOA4MY7626TsBlnLtP3qkGyJNn/EwVP6Th+I/K+Kv2qXdasK1PBPgbWojtI/4w39LYKu2hSdPPkUnYBqZfvEHgFe0f+49r7SkHBk6AD5lR6I0Yms0OhIffKQxNvEXwptx+JuHG6NVHMBSSeDZe0phOX5lLlab2Ki1EAk2fmz3yj+M6G0YZ3c2gOI/S+LvjUuvVq1Wy3MCrOLv7zWA+At/sG/Wt/DkKToBU8VsiL/a+H5L6pGhA+CzVBh9YN53roOtljJr6k924q/41DNNnKuPPgtwy55iWIDGxWoTG/XW4FfrkYhBxd+ajlf+0yn+BvMk/mFsWzkBiIt/mE9/8VfxW7Uqnjr1NJ2AaWC2xB+AfJNlj5GhA+CznMLbf/ed9ZYXHaf4CwAdFziawvoAl1Ycs2OKsMw13wkIAgZkEAchcd9BxH8qbeksiH9aDTef4g+vNLTbbXTdLqII4VdmQPH39hGo1qt4+vQzdAImyeyJPwBc3f65dz/bsudI0AHwWS6lMANwtjN28VfZfeNsG6Oys2JmHjXB67UmNrXbAVEGaUHbAJgvU5gn8Q+ZN/EPS5XeTICrzbBpg3YY8Vcpt3LqBMiig85qGe1di+isluFWiqZBG0slgj+zJP5q8wWWvUeCSwH7VFJwhU5X3YmIvwDw+EYXW22JldL2B9RO1Qia+AdPPEuvXuu1FlwpsbJYNvaNdu7EK//ELWvCZKbSds6I+Nv1btvMr/iHdNptFEslY4nf7Yi/GlvVeg3PnDmOI/sOQ4xbBDOifckC2lftAvasQixX4CwvQKwswFlZQGFlEaJUjAuOBNxGC7LehFtvQdZbcE9dBE6soXhyA8XzNcBNabDPtvgDwCFLDiNBB8BnY8QL6GZXoulKTEL84e/32MUObt27/e8Y7KyEBkqJf1BXGZa7UW8BAliuaGX1GaPS/JO4y6Bh08cMiX+K5EH81djrtHwnQL0uo45oSPFXG9V6Fc+cOYEj+w7NpBPQXSiidfklkNfuQ/mGIyjtWsXQ1kcAzmIZWCwjuAt77cEgWrY76Dx9HvKZC8Cjp1F69Pz2fNfZF39IOgDZsZE8sz0Qm63Jib9Kt94czbrvKDtwBCClgP7Qk5CebZXKXkpgo9aClMBipZTalT9f9aP4T6f4h4O202mj6H88aBTxF37mtUYNx8+ewOG9s+EEdCsFNF9wGYrPPoLy5fuxmHGVRamI0tX7gav3A6+8Ed0Lm+h86RGUvn4cjuXbJVbmQ/wBIPVlgekA+Gx1RuvJ4VP4kxF/AWC9OdqbAI4AVksO1luuVp5uErUQ4c0EuC6wXEnuRrYr/8R0/ZhKb2A2xT+NplQmNS/i7xeGTqeDtmg5C2JlJPFXKWqNOk6cPYlDew9OrRPQLTto3nYFFl59M5YWyv13yIjCrlUU7nge8PrnoH3/0yh88TE4T11I3mF+xB+AXLbkNhJ0AHw6cLDelOaDcENw/7k2Jin+AFDvjG7WpVAm2/srALjBtt+pRViXzUYLgPRmAizHMIj426Jtetp7dmESzK74pyUzuRJ/bd+203LSEH+Vttao4cS5Uzi058BUOQFuyUH9BUew8JpbsLS0MOnqhDgOSrdeAdx6BZqf/xZKRx+E045cAM2X+FsyGx2+BeAjARx9avsPAnzldAfA5MQfAFbLo5/Oass0yVLf0svVCt+st1Btmm1n67iDdmGKfyS/KbvyV9hlav7FX+2TlvirQuuNGk6eOzU1bwfUnnsQ8ue+G8tvvA2FaRL/CJWX3QD5H16D7qGdYeA8in8G3YIOgMb9G06wkM8wvPvBOr59QXsFcALiLwBcsjDalUOjI/0HbuMWNWqqAQGh1b/aaKHmOwG2K/8+42Fokgf1OJgH8c+i0fIh/gjGSHrir7ZrzTpOnT89WSdACNRuvx5LP/gyFFYWJ1ePISjs3YnCT74WnVdfD/2sUvx7QwdAQ8LB+x7pDDyVLiXwwYcb+OuHGhMXfwlg18Jop3OrbTeSXplCOxZ/TkAEAd7+jbY3EzCI+A9YJ175945PKLm/+KfeiDkS/5Sv/KPbk3QC3KKD+pufg6VX3Tz2skfGESi+9ma0X38jAIr/INABiPBUvYA/uK+LJzfiq38pJIDPn2jhZz+xgT//Zn0qxH+xKHD1ztEe6di0zH4Y9ex52e2lrDbaqLXaiakA+5W/TU8p/r3jE0qmR5l66QAAIABJREFU+Gcu/oAQUmYh/urfequB0xfOjNUJ6FYKaP3rF2PxudeMrcwsKH3Hjai/6IowgOKfCB8CtFB1Hfy/33JRr23i4JKDy3cUUC4Ap2suTle7OL7Vxfm6MneYuPgD3tf8iiO6c49dtDg9IuzDqv6xj6JAIHz8RqLW8GYBKuX4+sp81Y/iP+vir5eZhfgrY1Bv1nHmwhns27Uv8wcDu+UCuj/+Siwc3JVpOeNi8U23obq2haWHzmuhFP8odAASKBYcVBYXcexMFV880fJHsynr0yL+AsAL9m9/ASDFQ2sdM0CE5cY7efhWQBgXJqg223AhsVDSutiAV/59GbvHQPG3k0/xVzllKf7qb73VwJm1s9h36d5MnYDmd9+EpTkRfwCAAJb+1StRfedHsXy6jrkQ/wxmg3gLoAflooOr9i6jVHQwzeK/oyLwooMpOwCB4TV/etsiDAj+lbF0tWYbjVbHyKcnCRolE3+MA4p/IjkVf7Vb1uIvhNeyjWYDZ9fOZXY7oHbDXiy96LpM8p4koljAwptfjI3ahhcw4+KfxdmnA9CHwAko6Mt/YmrEHwC+95oFVAqjXR1stiROVV0zYxkecbTzmbMCUt/FSGM4Ab3ISKNGY37FP722zp/4h8HZi79K22g1cPZi+k5Ae0cZCz/4klTznCaKR/YANx3GRnWT4m+BDsAAeE7ACspFZ+rEf7Us8F1XVrZ/cD5fPdM2M7ZddouE6CgRG1prddBod4wwg+lTfsy/+KfR6PkUf2/DkeMSf7Vfo9nEuYvn03MCBOD+4AvhTHBlv3Gw/D0vRLPTxGZtKwyk+APgMwADo2YCHj9bRbvjYhrEHwDecv3iyFf/APCpp1thxqHeG2WqbSkA7am/iIENf0ktn3qrAymBcinyYGBC77b5H9bxYd99RCj+2yMv4m8K9jjEX8U1Wg2cWz+PPTt3j/xMQP2qS7F49cH+CUegc34T7dNrkI0W3HoTst6CdCUKyxU4SwtwlhdQOrQLTobrDRQP70bl+deieexRiDqwshBfUTeP4g/QARiKUsHBVXuW8fi5LbQ7mLj4P3dfKZWr/7M1Fw9eMO/VRw2nQqqDQ/iVAF38jf0E1KMBgPSdAEiUi2G36yvqFP9sxD/1xsuX+AcxYxR/td1sNXF+/QJ279w1khPgvPbZ2943ie5GDVufvR/1bz+N1hNn4G7VYcwTJRxX6cAuVK47jKXbrkPlhiOp12v5u5+P1rFH0Ww1AQmsLIZOwMyIfwYGjw7AkJT82wFPnN1Cq+udkUmI/2pZ4KeeuzTawfh8+njL6NxREYf0lVyq+krPDiZdvffoqA1/JqBSLA4s/tYykqNGIEfiP/qkkUa+xF/AF+oJiL/abraauLB+Abu26QQ0rrwEC1fsH3q/JFonzmPtQ19A/SsPQ3ZdxI4J6HlcndNr6JxeQ/UzD6By1QGsfs9tWLj1ytTqVzy8G86lK3DXttDqtLBV95yAPIs/wGcAtkWp4ODKvSsoF5yJiL8QwH943jJ2VkY/fW0X+OTTrWTxj4b5WyKhQxqfEdb30A6gEXkmwMx5iLBUB0WOxD9V8if+wRjwMx+3+KsUjXYTFzbWtvVMgHj1TUPvk8TGJ7+O4//9L1C799vbEn9jG0DriVM4/84PY/0vPwnZSV6QbVjK1x8OnCXPCaj6MbMi/ul7AXQAtonnBKi3A8Yn/hLAT9y6hOftG/21PwD4xyeaOFfTP/8bFmrYZc1BCMJU0mDbOwr9uHQzIPwkUgDNdgfNpAcDe40P6w6jQvHfNhR/v5zxij/8/ZqtJi5sDucEdHaUUbkmnXv/59/9cZz7s48BwZs+o4k/tOOsfvp+nH/H30LWW6nUtXz94fCHBFqdNqqNqpkoR+IP0AEYCeUElIvO2MT/R29axGsuH/2+PwBstST+9uFGrExd/JXx1I2fgToG/TLfsJ7x9Cq02e6i1e4OfOWfDRT/Ucij+EMAEMKyFDDGKv5qu9VqYW3z4sBOQOuq3QOl68fGJ76G9Y99NVbvNMTf30D78dO4+GcfT6W+pesOeRuBYZZoddqoNWpheMD8iz9AB2BkSgUHl+8JZwIUWYj/9127gDddk95nOf/64QZqbWmUqQu08Xa/kBDQ1wMIaye1g1BX+UbN/QLMbuzt0Gx30IpM8w3X3UcZHPkV/zRMSl7F3zvm6RB/td1sNXFxQCdAXHegb5p+tE9ewPm//ESm4h/c6vjqo6h98r6R6+xcuoLCnp2B+KsSWt02ao26lnI6xT+LdaDoAIyIhOcEXKE5AVmI/2uuqOBHbkzvVZlnNrs4+kRzIPH3RN0U/6B+2kWREeR7AkJ/VULbP0gpfCeg3fvjS+ZGGuRd/EdvzHhfzYv4e5vTIv5eNgLNdgsXt9Z79kfpCFSuH/0p+/Mf+DTgqneBsxN/LyuBrQ/fA9kMPzK2XYpX7YMu/uqktzst1JreksF5EX+ADsBI6OdJzQQUC07q4v+SQ2X8u1vSeeIfAJpdid87VoOr64dF/I31/3RbrR1DFNP5EaZGaTtHHxZsWWYCYhn3DhgCin9a5FH8VcJpEn9Fq93Ceg8noH3JwsgL/7SeOYf61x416pql+AOAW2ui/oVvj1RvAHBWFsyyZXhu2t02aq16bsQfoAOwbWznvhi5HZCG+N+6r4Sfft6y4VSMyh9/o44TW9q99z7ib/S/4Bg0Ae9RN0P8tUYLr6PCtK1OB23NCegpnIm/+kHxT4oflryKvzCOaXrEP3jCvd3C+taGtX/KpdEfHq6NWfy9igP1FG4DiJUFq/irYtvtDuqthrnTnIo/QAdgW/Q49ygVHFy223MCRhX/V19ewdtuWxn5M786H3uyic+r9/79QnuJv05QP/+mvz6QYveCZWS/WKOFRyu1n1EnQMc6jqwpk6D4J8Vvn/yJf+gFTJ/4q7+tTgsb1bgT4C6Nvuxv/f4n4sfkVSIz8RdCoHP6Itz1yFP7Q+IsLySKvzrlnW47dALmWPwBOgBD00v8FaWCgyO7l1FyHKOzDyr+QgA/9uxF/ORzllIV/8fXu/jzB+pDi78+MI2n/b0dIQ1DiGSBiQ76SFIVanMCZCw1AgdrMCj+SfHbJ6/iL2D04ikTfzWuW+22/xEcTVRWRn+DqH12feziH5T92OmR6u6sLPQUf9WXOt0OGtpMwFSIPz8HPFkGEX8VVnJ8J6CoPRiopUkS/8WSwNtevILvuTq9p/0BoNaW+L1jVbTC53YGEn+9gqFhthh3tW0MJFu6qLk3kX5ou91FuzvAg4EDQfFPih+NvIq/fnzTKf5qo91pY1N3AoqRb3EMiwTkRm0i4i/gvRY4CmJpoa/4q8B2t4NGuzm34g/QARiYYcRfRZQKDg7v8h8M1NIkif/+ZQe/8opVPHdvOov86Lzr6zWcqYWf+x1U/GMmOG6TE9KEoYN2XSX+yn63O3YngOKvp5mU+IfkTfz1Ckyz+Kv9Wu02NqtbkJAQW5H720PSvbgFuFqDj1H8AaB7YXOk+jsrFWgNlSj+qmbtbgfNdnMuxR+gAzAQ2xF/RTFwAsLBahP/Z+8p4n98xw4cXhnRQ7fw94828eVT4ed+BxV/hSl8oo/Q+WmCMrRfkfFhM/FR+93udNHpRh4MHHg8UPyT4tPyCHIr/nDkLIi/StvutLFV3YLYGM0BaJ04H/4Ys/hDALI22qqAstUdWPzVVqfbRbPThNHZ5kD8AToAfRlF/NXPUkHgyC7twUCYdun1V1XwSy9ZxUopbvhG5TPPtPDeb9WDQocWf4QDVYQBZn6RLGJHEbXevQozNr2/hhNA8Z8a8QfyKf5hfWdD/FXadreD1rl1jEL7+LmBjytt8QcE3FpzpPq7m+aqf/3EX9HpdtDstIx9xy3+WbgCdAB6kIb4q61iwcGhS5dQKoTdaqUk8HO3reDOm5dQSF/78Q+PNfGur9XQ9S3WsOIfIOLbelBim6iExg9zSyJ+cWUImE8rMhPQG4p/UjyQzTfGcyX+XnwwAxDmNb3irwrsnFtH66R2FT8MrkTt3ocnJv4AgBG/CyA3wvf8BxV/FdJ1u2i2W0EI9K1xiH8GA5cOQAJpij/gnU/PCfCeCbhxdxG/8Z07cNuB9O/3A8B7HqzjL75ZD4zetsVfw9aZo/mrdOq3zVDExF+aKcM9zHSd7iBOAMU/Kd4Q/xSNSd7EP1SJ2RJ/ABCuRPVD92A7rH/kHjQfPzUx8RcAxIgPMbrrNb9svZT+4q/sVNfthjMBMy7+AB0AK1mIv6JcdPDWG5fw3166it0L6Te/K4E/+noNf/eoP1U2ovgLzeDGRT1I0RMZVMLWOipHGTEa9tp4ToBrjaX4U/zHIv7aAc2U+KvfD57A+t9/aeDpdNlsY/0f7sH6h780UfEHALE42gWTu1HbtvgrurKLVte8HWCQmfin7wUUU89xxslS/FcKEj94tcB1l2Zz1d92JX7/WA1fPr39B/5MNCunX/kEGiUMS61srJDhccsgJwn12SEJPdtIBhqqjaNioGYBCoVCNDXFf4ziH5A38YcnFDMp/qo5jj6Ak//0FZRecj0Wr9iPwo5lFHcswlldAgTQPb+JzoVNtE+cx9Ynv4HuVmPi4g8AzsJo6xjIjZqW4/Dir5J03S5aEigXIrZ8hsQfoANgkKX4X7vq4l9eW8RyBg/6AUCtI/Hb91Tx4AX/u9wpib8p1t4fqTkEQgY+QUikGM3kW+hxT9raxgICEl3fCXAcJ4ih+NvrRPFPV/zDEmZT/NXfZaeCrU/cj4vNe1EqFoPUIpLvJO/5680uhBh5BkAGb0FsX/xVkq500UYbJeUEzJj4A3QAArIS/6KQeO1B4FVHsrnqB4BTVRe/++Uqntr074+nJP6AZzeCz/260AY4jKv8YCBJ71pfGoPHdCaUnU3S2tiuCenaXRdFVQeKv7VOFP8sxN+X/xkWf5XX6vIKIIBao45SsTTV4g8Azo7RPormbtSQhvirvbquC6CDklOYOfEHMnAAWh23Z57RJ77TYNtZhjbA2zTEP55rL/EXlpO8uyzxw9c5OJLBu/2KTz/Twv+8v456JzRuaYl/tNMb0/X+tpry13eQIm7MDSdBa3dvICXMAojoj7AGKn3X7aLRKRdg+FcU//7in5JhyaH4qzxnXfzVj9WlVUAC9VYD5aI2kKZM/AGgeNlebBtX+g5AOuKv4rpuFxISJacYSWdsjC7+GfgCqTsAj52tHmm1Xb2vhf+KeJPr/UIkhYlIh1BiEERKCCnMdCJadrhntAw9RojQruidPKl+QfmRnF6yv4AfuXEB5Sze7wNQ70j88Teq+OwzLaPugcIKAFIO6XCZDa+PAxkZNDKSXEX27KPSummG9fAEhJ5O++3CiahCJF+KvzWHkYmeCOvP+RN/AHBQdBzHGU789e2ICBtDLy3x1/7qProt1Y6VHRBVgXqrgVKhOJXiDwkUr9i+A9B5+hzQDS8i0hB/ldZ1XXTQQdEpzoz4A2O4BSAhIYSAlKFwy6ChvUY3rg6D/bQwaV5oSCGDe88A/GnneB7966anVXUJQ2VgGyL11HaMXl0vFIEfva6MFx0c/atbSTy81sHvH9vC6Zr2NLzm7aiOpB68G6w94uIPPx8jSaA7MhpkSxbYYv18JRUfTePlEzfOyVD8BxX/1OxJDsXfj5Sjib925BmLvx5hTeXvu2N5FRBAo9X0nIAexzUJ8RcLZRQOXILt0vn2iUzEX/3uShfo+k7ADIg/kKUDEFVza5gwxDTYNT4uAT1ZONJDE6O8BIudCAd1KIiqXL0sL0k8j6idiFXZt+VXrjr4d7cuYs9iNm9XSgl86JE63vdgHfrb8FJ4RxU6ROoPkhvTIFn8DSEPglV5FgGMeQTC7OwWj0FawmL10guJp7eqKcW/Zw6jk1vx93IbTfxVRIKgj1n8VdPvWN4BYBPNVgPFQmlqxB9CoHzL5QPYsmQ63z6emfirdC4kOm4HRce77Zum+GexhFcmDoBUU/IA4AuFOQsQnFNAhuIV9AXNxpkCrofJyMyAsKa31k9FSTMskruXb6B6nsEIf8qgk0oJfNflRbz5ukVjMjpNLjRc/MGxLdx/Tj3lH3blqDOimbsgKLlavcXfe1jP0uMFvIcCjXw0r1fLW8XIpErY+ry6FxNN08sx1JNT/JNzCNQyPfIk/uG29+/2pv0xBvFX5Zq3KKP7CvMPdi6vYgNAs91EsVCMH6Oe9ZjEH5BYfPUt2C6y1UHnsdOZir+a1XGlRMcFCsLy7NcUiT+Q2QxAOOD0BgrDNDWHOQsg/UFqnRlApPP4wiTgewIimkj/KQAprcn0Ia1kNXAFpKlFhnGBhAOBf31jGS8/Mvp3tpP48qkW3vmVLWy2tTvxfr0CRyYch1CekbTEm/QWfz3PaJ8P3gDwz4P+IJ+07KPkJ2pCo9s2bQryMasbczeCXxT/5BwysCP5E//QpkzvtL+wHGt/8Vepd6ysYqMKtNot3wnQjmYC4l+86gCKV+7Ddmnd+wjQ1q9YshF/hSu9sgwnYFTxz2DsZuEAeJqTMAugW/jw/NrvVMf0XPMbwitzLSwhvbep7aA9UGAb/KGARJVIGncZVorAT926gOt2Zbewz5/dX8NHHmt4Yi/9dlWVV9XS7kV6MyP6R1pE1N4F4fqmTfz1Lm3te7GGtvdQXfxt6YSeTigHLOz0mn2P1jw+bij+yTlQ/FMRfxW2/Wl/bTPNp/2ltm+knGHEX4XtXN6Bjeommr4TMCnxF6UiVn7oZRiF1qcf1H5lK/4qgSslgK7nBEyh+AMZOABSQjt50Uh9wGnKjXAWQBdxY2YA8XMQfRhQTxS5la9OOdRiDbZTJv16qecAoun0/A4uCvzMC5awZzGbV/ye2ezid+7dxJMbHb/eMERdVcYVwnAMhBanb5s2bjDx14L9WwGhOJtjQUR+K+MrI4GaiY40btjGmmPTU1DjYRT/HjnE4tO2KHkSf32fKbjnH83HqF8kZkDxV793LO/ARnUDrXYbRX8d/nGKPyCw8qOvQvHyEZ7+f+w0uscv6JlnLv4KV0pAdlEQ4XNh0yL+QFbPAECNzVBMjY6ZcEC2cRgL08exsgJSQoiEJ9514VT3F+Cn1XwQ4yMfWsk2I3HjpQ7+t+cuY6HY03Jsm6NPNPD/3VdFqyPD+hmjRauqL2rCbxfTt/JaxFUzLPp50PJRB2oTfxt6U0VPhfdcgO4CyMBQBL6h4czohLkprQ5sfOIg8M8TxT85B4p/uuKvxQ8j/satxIzFX/2WSWkHEH8Vs2NlBzaVE6BuB4xB/EW5hOUfeAkqt12LUWge/Yae+djEXyWU8N4QKAhnqsQfyMAB0AUl2hbh0+Nh40VFOyou1pkBrSzbLEDw2pmuddJaJaNcZTC0dwXgDaLwqffXHC7hR29cGuVh1ES22hLv+soWPn+yGdziEKrOWjsETo0EhGbF1EJ9hjCnIP5CAP4tLdM/0vqoOleB6FuQeuJ4KcG+Mni2I55WlaPXg+LfIweKf/rir4qziX/ghZvhmjbHRTsT8Udy2iHEX+W3w78d0O60USgUMhf/0rUHsfKjr0Jh306MQuehE2jf95TKfOziHz70LtGVLpzg+3uTF38gi1sA2r9BU4YWIprA3Dc+VoF4MjNMWQR/FkCXwKAIvXGDMnq/Iy/9zhj40FLiB66t4I3XLCTsMRrfvtDGO+7dxNmaG9QpFHuzpuo+v96YUuud6paBnpFQByV0g4O+4q8prB7Ss2/arthNB8tSRpDKNFSx8RdoqgB8t6zXSocUf3sNu5026o01LC5castkIDarp3Ir/mEv1MVOF01dIL3UnklJSfwtf7MSf/Vj5/IOrNc20Gl3gg9xpfqef6WEyguuwcJ33DTSgj9hnhL1v/4SJi3+KnspJSBcODHh0zd7jP2etmx7ZLsQkBIvqTfE+BYG0ncM4qL5hvYjks5s7NdeVspE/CWADz5Uw18+UEP0S/cxO6Udt9eOZqJEw6aL/JDir4oIRVdqsaqba49YJnpUmh1IFK6eVjlIpRuoXp4IxT+hhtLL6cmTX8QNV91hy2ggHn3mM7kUf/22VrhXwrZWVqbT/kmHlZL4q113LnnPBLQ7HRSL5tK3g4i/s3MJzvICnKUKxGIZzuoSipfvRfHKvSge2g0U01tDpfnJb6J7/DymQfyDviMlXCHDmYAJij+QmQOgjzIRD5KWZP5JSGNhIM+h0NQyoXo2W2CE+Vnctq+AH7lptI9Q2Nhoufi/vryJr5xqhU5QFGHfFggdIRGJV485Rr9fLoCwMQcQf+OXEP7thKgLMARaVzAxz0TSEIsuO9BL/yn+CTXUqvfA4x/Csy5/LQqF4VetfOrkPThz/sF8ir8RoklHRMSNzbGJv3YMKYu/ynZ1eRWbtS10uh0UnEJf8S8e2oWVt7wcpcv2QCxl97q0TufRU6h/8EuYJvHXh4ALCSdyYQwtrZmlTIwalfSXrNMePVcHL4XZosqDlv7vIK2nUGYzR+yDnq8ZFjHq2hPn+j1jMw/zbnWoGWH49ZcU8O+fszKs1PXlm+fa+Nl/XsOxU63EE6vfY9Sn1YM+Gdg9EbSnXffMtgnaYwDxl8aWiIRF9hdmWMI4suzXp3WDuoug0uZQjEgwxd9ew0j1Tp7/Gj78mf+ETrcR3aknjzz9SfzV0Z/Ks/hre9nEX5pljVX8LWWmKP6qjqvLKygWinC7bk/xr9xyBS592w+gfP3hsYm/e7GK6p/8s7fu/5SJfxAnJdxg3E5G/IEsZgAkLIM5HKQxJdBHp39ChlkYSC8ifMhfGu/GazXQikySEFWQxOFlB//xBctpzkpBAvirb1Xxngdr6GqdQ8QbLai5CxgPMQYpJQB1nBHnIHa80d8DiL8RpDlU+kOBYdEW4yhU/zXbeiBnKskeJ9bbrwvF315Da/Uknjl7L9790R/BLVe/Bc++9k0ol5ZthQAATpz9Or7y4Hvwrcfvhis7oPjbxB9mHcYu/hJZin+Y1MGOxVVs1sOZgGj+cARWfvBlEKXxfXXevbCF6v/9UcjNxtSKv96nuvAWk5uE+ANZ3QII1SkUraEWBkqSwgh+Xw8GOcJpapWfvl/wWyJcUMd3FlStID17s6si8PO3rWAxxVf9Gh2J3/zSOo6daoWDMOoUCYRtBj1c9RpTAc0uJ4zepnYTQu0vImclSrJLEJ5HaOdMmcWYFPbNE9Ccu+h+1l16GOkgP4q/tYYJ4q/YqB7Hp7/62/jksd/FZQdeiB3Lh7Bj5SAqpWVsVk9jo3oCZy88hDNrD/vdy95/8iv+WnhYrTFP+6vmyl78Q7slsLq0gs3aFrrdLgqOY5S5cOuVKOwd7Sn+Yeg+cx7Vd/0j3PX61It/+ENpViRPm/hn4Alk+DEgYTSkdZpX6uNfUz+g58JARphehNZC0XEv9R2s9ifcd7Eg8QsvXMWlC+ld+q81XPzyZy/i8fVOWDDCOknfaRLRymneUJIdC95n8A2j8WyAgNlQsR4JPaJvqIAyvmHLx8Iiwq4fpwoPnuvQZmKiTo80do4mMLcp/gk17CP+atMpFiG7HTz69KcARM97fl/167kGe0T89R+TEH/DTmQt/sF+oRPgul04ohAkLx7ejbEgJZqf/RYaH7oHstGZKfEPx6eWz5jEH8joNcBQ70NZ9sZzj4WBLAN1EJmKPyDozy4EtwG0Omj2Vn9G0PuwT3jy/uV1Czi8mt4Kf89sdvF/fnYNZ6puZJBqlVBh/vHoBjd8lzRMo5rR9T9KFMZpDaKydqHdEgmNZ8QyJGITEPVQoG3/2AC05af1AVvS0F8zjyXIeuDRQfHvFa+HFAoFVBYW0Go2tGQU/6T4WHbB9rjEX1UmVPBxir++1+rSCrZqW+i6rjcTAMC5JPl2Ulp0nz6P2ns+i+5TZ72azJj4ByECgJSGRsX3Td8LyOa7tQr9KXyrIdRNoYA55EwvKPhXxsOU1yFjeXr5xgxlkDZWIdy0q4DXXJHe634Pnm/jbZ+4YIh/UDNpeYNdRNsgOtwDyxfvu5F+pY7b1Yd4zP4PIv7RNCIWk/jufzS/YID0F3/TqvWrqQ2Kf694M8TbKhQKKFcW4LU2xd8er/q+6pi6Go5L/EX4y3A+LHtlKP6B/yEEVpZWUCgU4LreA0LO6iKyxtm7A+XnXwVn5/LMin/YrWVclzIUfyATB0AbtoEqReQiIsaxMD9t8FCfpYTezeEPAP8pf2mbUolkLCVQKQj8+K3pve73+eNN/NdPr2GzJSMdzKtAcLpVnNEvfBMUXYRHyyc4jNjxhdZd2UK9qw7VlYTFaYi2nZbGrJ5duYWIn9XIYUVqHCdii+xSS/FPjDdDzNQFp4ByxXtim+IfjY/E6sKd5SI/lq3ovpMS//CYHKwuLKPgFOBKCXdruLdLtoNYKKHyulux45d/CIs//Ipw1mHGxD+w4UJqS9dbM0mV1B0ATfP1EA+JAV4JlAnOQ7KvEIRHBnB4YsyTFQhrJMPXX1nC3qV0pv4//mQDv/7Fi2h1tSKCAaN1Mr15JIzelGTHbPe79b4SOwfCki4i7FYEtFs21uw8w2zNR5iDoYdiR3UjyemLCleyi0Dx7xVvhtgP1ikUUKpULBbNg+JvljXuRX700yIiAZMQfy+d9GcCPCegu7aFsVEsoPyy67HyX9+M8ituiNid2RB/PW3i+EyZLG4BGF/qjVssiwLYlN0/cdYvwvlCGU0eEyYtU2+N+UiBQgZ+QKUgcMdV6Uz9P7rWxh8e2/DXtI82gTAEPPr0pxI6vSvqbZD4rJv29oPRGH6GgW8hwjK83RIy1AyyVojlWU4ZtQOIDRqpR9sttGljRDwsSfxjFaL494o3Q+wHq0ILBQflcnyRIIq/WdZkVvjT97PsNQHxD/IXDlYWl7Uv8I0PsVDC4ltfjuWffgOcXSuYPfFHMBZk5Aoti8UAU3cAglXpLR1HNdh2FgbSkhsZxnwnFSYQNxDOAAAgAElEQVRlpMGiDoHZoN9xqIiV8ujNsdVy8atfWEe7a7mfoyqo90ib82P81DqcfrwiInSRdrYtLhE6CIYkxevoG2R1JoLUIt6JE1c+04rqZcr6hkT7D+zNF6Sg+CfGmyG9xV9tOYUCyuWy4U/mXvy1mHE/7R/dnDbxD+siUH7oHLqnL2ISFJ91ECs//30oXr4nrNsMiX8w7kVy0jTI9iFAqIaKNqZltBpqpFsjEQhf1AhGBSzJkAbDV2hOQWTgf08K6/xLAO+4ZwOnq93ACQkMZ6xOobmzLXKkeUDeT19JBRA+7KJbZX23HvVTQpG4GmBM/LXCeumYkUGYrpf4R0UrNjsgwnaLOymRT51S/HvGmyGDib/CcQoolcpQ79Qociz+Xs5jf9VPmG0wpeIfnkaJ7gePQdZbmARidQFLP3MHijcenknxt2aZMpk4ADGxFuGPQH+Nb/gK4x89H1vjqvytmmlsh7cQ1FLBQLztD684qdz7f/+DVdx7shkGiLAdpKUfhIdvMb3GgPWMn953ZHTqW5qmyuiwEQUJhD8oQ3vuIir+wpyBMR/4E0Z+UfGPVM9uqEVsI/hpe0YhaiR1r4bib483Q4YTf/XTKRRQLJeC4NyLv/HvCOJv+RtzyoN9o9vTK/5qB/nIabR+9240v/yoNxvgZilncUSlhKWfvB3FGw5rdcXMiL9NQ9Mks4WAYuMytjBQJBoyeC0uPDHamwARmxacOt82xB2OQML61FLi5t2ji/+D59v48we2Yucr1klEdOxJ7d+4I2T9sE90iIdelWGYzc8Ih2ZWqCkE/5z0F38RHEwoylHx147Hr6vy8bwyI7bB2M8+FBEJ63UuKf72eDNke+Kvauw4DkrlMjrtdjx5jsTfEIC0xT+pSL+MWRL/YJ8LVeA9X8R6swbpAIXlRYiFMsRSGc5SBc6uVRQu34Pi5XtQOLQLKKR8XVpwsHjnd6L6mx+Ce2Fr9sRf/RAY/qtdfcjMAQj6kdKZQKlCkbcuDBQmM4TeaD8taRAvjV3jldHOR7iP98rFc/eVonsMzd8+VLXfp9EslXmazdsDhn+knJrIKkd6/YUWKJXRsTgOXnqtMSMt6vrxwg3PkS7+sX6tZRFtz7AyyXKs+QdG3rahGM9FWCMp/vZ4M2Q08Vc4joNiqYROqx0myJ34az0/DfHXBr/1sER0e4bEX4bHv1xZRLVZR3ejBrHhLdfbVQk/56tCsYDizZdh4RU3onj94X5+0cCI5QoWf+K1qL7j7yHaLuL9Y8rFX1UpZTJ9BiAuxBEjEY32e4uEOtZkiZD6v9G2k5F4tWFtY4ErLxnND1pruPji8aaWo1kXvTS9vrE6RvZTaXWxF/qAk2GJaiEebz9/MOn5aVv62wlChrMLEvZp/4GJrGoo9R8I6ztI3onD02rbrS1I8bfFDREfqXGAIzwnwPNE8yn+UqQk/pGaq61w7Oj5WPadBfEPfjhYqixBCAfSyDy0V7LTRedrT2LrDz+KjV/+AFpffAhpUTiyGwtveD7i/WMGxN9WzRTIYiEgo5qGyIkwxJBKm84bAhdxfnQDlmBvo98FiNZJhRUgsTri0//3nWmh40roN/rj7kq4IqHVwFsORiBmA6G3n0TYh8z1uWEM9kSDpnLUT0MP8beFRxcmip1SZRijorWdzmyx7fZsKP5Zib8KchwHxWIRuRR/rbRUxN9yTPq+8yD+wc1EIbBUWYQjHP8VZE38I0fjnltH7S8+g9qf/DNkVXu2agTK33kThLFE8YyIv7Wuo5PBa4DmtogGRgxG0iuBetrQCegtZbqwG79lpJ9qrJST3kwfnFPVLhDtNJGKRY8SME+n0NLqIi7VaoaRvJVRFVp+QSa6+Eut3ZKEJ6hf3G2JZh0fBap/i4T+aYp/1HZEjzuRSJyePCYVFH97YSmJv/ohHAeFYjGMy5H4B2VuQ/xj1bYxh+Kv9nSEwGJl0fjya1T8gxABtL/2BLZ+9W/gnlnHyJQKqLzx+VptdKZc/DN4FzCztwBsv6X5xyfsTEE6Q8XjaaUKlmF2UaMmpdZgps9h1GelNLpXda7u6hU2BkBo+5ToazWNnFAZWLr4cZnjLrLWgrkJ6XohrrZvf5E08wyNrjYgeoh/QpcOHgSMH0PEpIn4vr2wnzWK/7jEX/10HAeFQjGH4o/e4h+TZjNUmkli+Qb/zJn4KxwAi2V1OyBZ/FU57noN1Xf9I+RmHaNSevG1cHavRkKnXPyRZKFGYyzrABhiFRFjAN76x9C7uV30vX8jbSDCMgwR1DZiToLmAYwu//4X+YKMI105GJthDYO/mrFztWPRq+ndapThAUaci2DfiIVXbaKKsH5owiwdelvHxD9Spo4+QIQRHn1X36xb9IDj/rg9LF64H0PxtxeWkfirOMdxUCyEz9HkQvwRvjMDJIi/NH9HdNXOHF/5h1Hefo4QqJQr8CycZpQj4q8ycM9tovpHR4GufsG1DYRA8QVX6xWaBfHPhPS/BdDLHipiDwOGHUtq+4f9TDeUYYPrJ0q/mg47k3ZSo+KaojslEAqsKiv4NzgQ05Co9/jN4+xxumP2PhR0gQQnSztm1cxCH6SBARSA/mXCiPiHecatlnr7IG6nLRbOSBd3LpLyjqaLjUftZFL8xyv+CuEIFAuFvIi/ESqMHh0VPfs4sKbKkfirHBzhYLFcCV9NThB/RfeJs2h97tsYldLzrwrqOhPin9FSgNk8A2A5RhUe6n10cIWzAImPofUxxNF+EwhlVu5TrFrCHCdxO+0niz93YBVPlZdE8CyAmZn//WhNJMxFF8PW8QZV+FtCQp93SZbhsE5Jtji+p+VoIsbFECYRHWcyFpgo/j3rQfEfJD5SY2t8L/EPxp/jwCkW51/8g4detFFhSygsERR/IysBzwlYKJU9J8BYIM5STwg0/+nrQLuLUXCO7IKzb0euxR8Ywy0ARWwsa0plfOzG/BNIe+yTvhYLK70l8ozwmDPRUxBGITJI4uM+2FKira5cjX6m118Xd6sxFEacvtohEOk3WsIgOLq2f5LDAnv/tppgu6bG0uiZWMy/9XDteiAAkfB9RIr/2MRfbQkhUHC82wFzLP5BLew/LL8Tdsi7+Kv9HOGgEl1u2iL+AoC8WEPrC6O/Hlh81kEz+5yJP5DFQkAifMk8+iVZNbilgN+H9N4n/O6jdjcfLLP3WRnZ155eaCdNnWjLJ+lHJjoATWE3y5Qwp568MPWkgN4Oaj/bYzJmSyReoyvxF1oreboZ2V8rWa+wtypRUBf9No06XoHAnzFskED4hIE6Cv12iWmv4kdh6/5xEywjD1TmQ/wTA7IU/4SE+nEL4X1J0O36V2lzKP5GClPpIsclLGko/vp+CgcOKsUKmp2mWTVN/NXOnW88hfIrb8QoOEd2hdnnUPyBTFYCtI9e27iWMuy4NpsWLGXrK0+wwI0ApNQFP9rAwn+9UPqCI8wTnDKvu3IRN+4uWY/RIDjY0Ej0rY9IFnaLTYmliAVrAa2OxLfWurj/XAcbLU01ouMeSbdRPIsj/MTeaTI/d6w7CbGPQmkGy5j2t5RlBIswL99Z0XpQT+kMK9orzQyIfz9xz0T8E34kHbdwHLiuG3yLIng+KFh5yszDuzgwwyM5wnQn49UZj/gDwTs20QFmexgwItbBX4o/optCCJSLFbQ6LYSDwRR/SKDz6Cmg0wWK21/G3Tmya7bEv9978Nsgm6WAA4MP+yyA2vBDwuvdyGjS9jfbLbRySmDUlaU5q6AX6oXrsWm15g27S7hh9+jLCU+C268Eqm2J37q3iofWvCu2WAsGgxPa83bmiZEqQRTdEEFr89h5DXuARHycGeIf6y1qZMTVc3DxTxb3eRT/Qbyg7Yt/0EO8+7quJtoivkM4PBO8v2DHXuI+TvGP9/eYoFP8hxZ/1WscAZSLJbQ67ejhhLu1u+g8fsaYxh8W5/CuINMZEP9MGNszAEDY76TWG6TeSREdpr7iBCdehClEpH9GBnCw3K20D/wxzK7MDMslgf/ykhVcv6uI8FN/WltDaK8TmjYi9p6/DWmOXdOWRF0Ak3hYPERKV0jpQrrerQD9PwT/ud6XyKT5n1RxUm4rHtINy0mIh14X6P+54bbUX9TU/wvbEEbI9sXfWpLUf0u9ZrG4WO17xHvvsTpmXpH/4Hp2IHruwv8A6bdz7D//nLs947VzFP3PtZwjI9619AdpvANI8Y8Xs13xV1sOHFQKpdDHshyne/wCRkGUixCLpdyKP5CFAyB98RVGkHXb0g8AiFgb2Iyal8bapUJRMQLDHmSY1gwbd5YoOcCP3bQAz7D4bWXXoADbF51VOsNJgP3BnvA8JS8kZIYluRhxcTX/54tDPDQULEPEdIFLjjeEMiE+yCemLTLctvomNpFTYa41XuoZxkROCZgbr4xReEQsI3FRITTb3Y0cuRcvBIL35K0ndwxX/tb/ZOQcxeLNfc00oWRR/NMVf1WOIxyUC6XE40xjeWBnsTxD4p++WGX2NcAArQ2F7bfwBpqQIrxdYDwJ5M0CRG8lhJnHilJ7QT0BoMcZYyD99pxprtpZwIsPlHDPqTak1MyQNgBVu0JG52rCh/sCW6JWNwoTaXmowR4GRvu/Oe6TxB+AK4X+eEGsVySOK8MCDRVvM2SJOcTizX3juycZycTCkuMHq2bwI9neWEoYOF6Lixk5AX/pyhgi7ERxhhD/ZIyzbM0/4Sek8FfyoPhnIv4KRzgoOyW0um0zMwmg1sLILGpf2J1y8c9CrlJ3AFQlvQf8IidcxNOqISCNAG8WQL2lFhVsCT1Ou1rVzoGEl4EMchfWmQn6ACa37Cngiyfb4cpmItpGcSEWfqLAyepx0WaYdJlUhmYSpJlAd+RCZDCAxiX+AwtLr4Sjiv+A8dY4S3yq4m8J8T+gBzcwdj06CkRyK48q/v1OTMQYx1Kq2zUU/0zFX+UphECpUELHbQenTkCkMgMglAMwC+KfgVhlMQMQSLP6NLyU2tV39DI8sOhKpP00Qj0cGJp8tWX2bfNNf6NfW7F4IiTgwLK6KxQ6UKpR1akzxoWwOFI27VR9IYjsLf6uyiCyHHH0zEkJCOkKiajBt4+WwcS/VxaDPfBnjzfjMhV/I2m/A+113IOLf5+Efoh3iyn8EpyNHlf+QT79nIPEHYNY++nrL/5euBvUlOKPzMRf7ekIgaJTQsfthHVpdaJ7DE+pMDPibzGVI5O6A2Dou38p2Ks/SsDvuBZDL9VRy6CD6P5C+GCa7yhEm0cqEZNBqmDJW2HpcAR7Fp3gSi1u/ML1Fvr1RO88mV93DIdzcg5GjHZv2Cr+agd49/PjkUk1s8f3cw4GFX9pje/nnvQS/55ZxQOMrAY0MAlxiUUmxffoGEa7iLjtC61Fb3HvHT/YlX+/47GmibQNxV9FZSv+Cs8JKKLjtjOQQlWzqRX/TA45s2cA4tfvCG/ta/3OnBAIT4AUgXz4xJsg3u3CtNGZgWjtAJFNH5pxLjZ1EZP+efACYq0svGfEgt9A5HxZiK4FEI1O2N86AISXX79FgMJ8UxJ/K73EP5YsOTBWBbtx6RfvbfZ303raqmhwv8Q9BFpa4j1HXpeD6bny7xfv6k8lzaL4L1YgdywAOxaBlQWg2QaqLaDaADYbEI3OVIm/whFA0Smi6462FHCcGRD/DAQrk2cAokKgXzXqzoDuhKq0YS6RjIQlb62Tm88MyEi0t5e6iSC0zDojflhq3jhVdfUm9/6TwntiXiB88j8YK77p9sNVWHCeBDSBjpgGm6qrCD/O1udDmxOsnCiCKeV+4p5IbwXpoW1mCbF40wgmSGNCSD/x75XVgAamz779xH/g40mqdLDKZP8r/0k98Gcz1sEomTHxd6/bj+Jrb0bpmgOxY9LpPHoK3c98G+KbxyHd6RB/tZ8DASkK3vT9qLS7mBXx733ptD0ymQGQQXvGl7sN2lqJiSbcgHldbj5IGBV1s6y4+fClQfp1iPc0AAInay62Wi5WymNdEmFqefhi5L6a1D4WnHSVpM5p1G8T2u+IPbB+hkAXfw2706f1LCnhv0xurZr9hx7US1mHmPbvVfrQ/kc/8U82Pmld+dvjezkH/cS/Vyv1e9q/V916HIAWbz99ZujgDpqMmJXpF3+8/mYs3v6c2PHYKF5zAMVrDqDz7RPo/PEn1GWTVs5kxB/S23KEgLNQGehYeiFrTcyK+GfxHkBGtwB8NbBctUvAeMtPnxkwQvwjV45CoBpJVtyPCoVFGsmlFBB+RsGa+9Kbwj52qoVXXb6Q3uHPKBebEp96ph20o/G8hH9K1H8e3nkW0JwE7WwH13WBNyCtp1H1CZkg/vGAyKqCcIXtTbJ+4j6I+PdGy6FXUmmLTjKSyZkNIv59dkRv8e8l7v1qmFCJPnWTvRovaJfejdvbOehRjSGn/fV8JNyZEn+5dwWVV98SO55+FK8/hPbLroH43KMIH7qarPgHeSyOvvqqrLZmR/wz8ACyXQoYQNwF0A2+jpdOTy0AmAv4mLcS4ntHXh0yDEh0GeAwhz+9r4H9y4WZXc43LT74cAPtrt9KkYclDQdOeA6V0VHhJw7Shd8IMEyb5cpf6AVp2N0926eUXWn7HmAv9ekv/kkiaMkhFh/v2YnxA4r3IOI/9AN/yQl71i3eLglH2LsBzXMwYNnRAnqLf68S+pyjnuVLSH0BC/V3SsUfAhAvvw6iuL1ZzsprbsHGJx7AYnnBOKJJij8A8x3+bSK3GuGP6Rb/eLulQBbPAIS9OjILEOuk6kgljIV+osnULIC+Xnisv0v4Hw8ygoJibBVVrxpWOxK/8oUqfuLWBbzysoVMvhQ47dz9eBMffaIVvP9vaLI2mD0Xywk6dKDv0jidMKYFEB8aiqCzRwyecR6DEynsGRkfA+ov7j3HrB84iPjbMY1gHx2J7GE3Lonx/eo0sK2ylNAvvl+d+gj4uK78exSenLzHlX/Yu0ILNO3iDwg4u1djxzQoziXLkOUi6s06FsuLkVu2eiXMzUzFHwAWRrxga3f9ZwAwE+Lfr1tvh2yeAYDtCt1cGMjX30ia8FU9T5z9PfXXz/ylRZPKMVahiXsI3pfIpF6OF9voSvz+V+v48/u38C+uW8LNe8s4slpA0Zlfb0ACeHK9i08fb+Mjj/n3whC2azjbEk7dR7RWs2Ph65bR3mrot24c9Ahth+iMQ5gmaSBIM98e4t8nAv3FX4uKK4exObBY2uKGOIRBrvwHKbffccfj+x3hNpyDfuIve8YamQztuwH9xT+sn6b10y3+AEZyAACgcHAnOo+fRaPdQKW0ACH045mA+EsJ5+AlQx5FpAS1kFBOxR/IcilgAahXtIS66R/pAUpUPN3QLiNtF3p6Xwru50fygnIiLOXoP4xw/S+w1i7gncc20XVdFBxgZ0WfNhOaVklz4AdJvAThjIfNOHjx0fXRhbZKUrDlu9u2T4wHuQlA+M6MCMLtRkbFCQBNKVFvm2ncIJWMbaklgOMDV+vwer20sNisitRbQktnJjF2ThwI0hXhLYB+JqW3svYWQYtXkxDQUxoHFHeLNPeuU0JQsq3qJ/7DlWt3iiJpBkjU71W/3lXqJf5DnKM+5Qd2ZgbEHxJwLl3pfWx9cHbtAB4/i66UaLSbWCxX4hUeo/hDCDiX79nOoYTZ1Jq5Fn8gKwdAIri4DoXQM/ZCyngnNn6aswBBmN4ZIltRcQ8ESxNOU+bDVwL1WQAVu7RQQq3ZQrcrcaGhVvwyr0uD3xExVhvhfe1wOAS7KKMQnQIR0XJCsdYP0vZWg+GRi3BflVT6zogTqbcx5Q+vuoFYq/OovIxo+2pZuUadI0cgpNZyevEimjggOu3vlRFNpJwMdT6TlbW/rg2kLv1FTtqiB3cc4qHJxqf/YQwm4L2dHlt8P+nchoAHp67XvoNd+Q8SFT8NvY7JFhcOlGkXfwCQjRZEaTF2HIPiXLIcHK+ULhqtJhbK5fDoxin+AMSBHRAj3gIIZgBmRfwz8AQycADC0x3KbSi+0Y/6mP04OPzYFWPsFoK/o5DhudLziuWrOR6xsRO6HVCe/VKljFqjja500WfkxZFefdVANxwUbXDGxnvgKOn7Ga1n1DZIJ6LpwjKCtlKGROjV8NOrtozk4QatIoIGD8+pt2U8eGmO+1g7meIpgrrobSCD+qoDS3hDXBkIAYSf2rUlNKQ7gcGm/e3x/aQvrtiJRcTiBxPwpKBk49FP/IcrV9qDzTSDJOrjOPRut15nuV/legVJe3zUsZ9i8Qck3PUanNURHIDdK0Y1pHTRbLdQKZWhvsQ1LvEHAHHl3iGPwFLaWnWmxF9aMx6N1F9+l7AYekTapG+7yrAzJVrmcEBBIhgo0VSeNshAw0xhkpH6mnsvLpRQcLQH3oIFS+LVMju6Rfy1RL3EJja2g6qZqyIaEymxY1d1lKH4+8FS/xfSeLdfr5cEzJkAPV7o/5gHEXZc3yBGDZeqjUX8jdxst1eiWQnfBfFvASR/8tf/8K9M+s/P0P5NWK/trfmHHxQ2P9dr5i0ljC/06vka/0GfyYhURktn5GvJ3/w0sFEokj7Zax502MZmVS3lGrvEGs8rx0wUP5H/f3tn+2vbcdf37+y9zznXDtcJFz8FcGKHKLYwKVCTUqS2FiEiJQJVFSDgBWpLeFNVolLV/hNVxTuExFPpmzZVFVVVAhIKGCUShOBek8gY39ixndixc3PtXhvfXN979sP69cVaM/P7zcxae+199jpP6/uxju/es+Z5zcz3N7NnzeqIu+6zul6SPxV3MQXf6fNqjGUq/BcDtLQ9+LcBhv+dWvEHHOTv38kLsgH7/+DB0Jd98pVUOJzPQ40dl/gDwPSxhzYrQIHVc98qZOPUin97QY7A7t8FUKibuHzvu06cdaYY5+weJAcDSfRfqp5ylTUdwqTTVL/A7HCdoF4JuHU4x3JVAWbjiyli4hAPQBLlqa0fa3enAkkIl/am5BxyE59/oZKgPqukEVunwzqfzRhTiKA2ciZOxYVYa3HZ36ESyfKuBwLzoqAwRrlgjKXhYl25JD5LrBdlyK0zjsvqsKZbqVbb5bEl7naXrsGlO6r1A0HiY6Nxo5DDjvDS12OX+HeFbBLoc4/6XMp8brjsb/35Pnn6xR8OkLdvdZZnHZPvfhdmH3wvVs9/K6Yn9Srh4XKO/dlBHJsHFn+89z2YPvzercqhWV55LcnGuMQfGHITYIOfgaYVl7Zv37adUgelSUqckHQuSQ4LUnErz2E/QHDT7wtIur3327hcONjH7cM5llXhRjhrhKS/4WcGjfMSW57hhpMLw0WJ5/GnCZs8O5uQX5Zzkm02BKQ53hdxg6bOoh9MfL/0DdMY+LYuHGDfj9b4teObQ8tDBNZSQov4G6NB/SBUVdmLHSQNkHG8y/7r4u4jPMWBoPfY0F/c8+sbV1Dt2ssm6HmPOpJsSb0j3vJlU0Nrrgsql/VeLcKJe8kgOC7xB3DkFQAAuOOf/wi+8/y3VN7ryCsRzJdz7M/24KQwVu1Q/AXA3j97eNsiBKprb0Ouf0dFPD7xB4Y4B8CFyaexiv2xv0AU1/ibtP1Nu4kJtUjb3/6Lwt1aR6F6lUAj+ZQ8NaCNBhXLHQd7uHW4wGol8boqY9QvafRXReQNFBV9QautwdKIv9P1qMLnRkcSoUpEb4Z0QPNYZaGqEP1JveCh7SWThzRolXz39pj3XBJ048+7OKgVo6Tg3ld2HkBchMwC9Ba5/OpaYenZN1vFfV3z7Rx8cs8bei9+6TRmtEuvsndXfne5+xWg4/Z15OLoxoEUNvC2iX/JzfyEN7D4QwC8cK2Qkc2YPfx92P+JD2H+xedimmGMqTBfLHAw27OZ3bH4u/vejdmPf3D7QjSs9Oz/rIj/ALbA7lcAkvHRBYUz08fQCWpsL/HbvtI+kPv0LskqQOPsDwZKZ5mh8yWils/GYTbYBSOgEtu5skzFstaCq7wWjJ40Hr3BqOtHh3pfXpwxm0pSY8JEhxKgUj9RADCrAKIGoSj+pleqDpN+bcpt7q2POX+3Y0jEu7iyoWBK7kpvcRSnV4103nI2WFLeWCc2MA4yEewaJtcNMD0S0p96GwfrpLPFRDpR42BNDteJ+zpi/rJJfTYYtHVdQcHPcOLvAODrb6B662a9m/8I3PEvfxyrF1/H6ttvWRugEaz5coH92X7jtlvxx94M+598fCcvAQoGwBkS/wH0f/ebAIMYN5+ja6t3H6rgz7upzhE25NlwuoJsO7I50b+Ftw42ou5rcvHCwT6mk9jpJBE7HS52jHL5dcNPN8sF0fThQyTpekgSn5r1a1nXbj4C/YhkMDkq79bV4uI9jg3VhTjzMdqZvGXlL1zTnkIKbUc0NhvIKoHdgJf9V8FsfCvvONMf1Z/6r7TJTgeo0iQKmwPRf8NfkpHCAJPnLduE2BI2K52pt0Ky4Us5X2I9Fcu1qw1/2V8h3sRDFirb8Nf6ZyNs7RqqZssX1JXjEv8m3eWXv74m1+txdx7gXf/+E5je/56YjaZzO9T3YLGaN+2oDQn/SOLk85r5FmDvl/7RkQ//AQBUgtVXX8PZE/9+pvUmDPYKPP/bfynHoS8mjdv6Vd+VqIh3MKvAMSIfbayqECIOYEle0s9dbg7AHQf7mPqZqBS0K0zzxYTNE415y0mWJwo+jbgbrzZeW3fIVgjSgSQ8+Kj9if3XjFPerSD+dj9DqRRIrB8dsar3zvOZpTlpIFNe8xc+VqXLXcKuAlQlkd1c3NtE2toRBSOmENYIla48JXK9jIOQ1VLd6bIVc6bqDuU/+MGt8Jfeo9Kf+q8Yvlh6X6Ry3Ka8SShbtjQvVRiBCksBpo0XW67uD1LwKGnAI4g/BAKH6ssvl3KyMZO77sC7fuMTmD14b5O+PYOkqgTz1aIldGgI6TDYfM7vo7uwj71ff3wnS/8AsPraVcg7Pn/J6Jz1Ic2Jin8hP0dn8E2AgI0NgwAAAB8ZSURBVG9+fkE7twz1O+aLYcWGDccBixcd2xFF/RuOn22bfSbXin6lzqRftHdwzcbABaqqyuMR808+S4fR1kI2YkPLDlEUNXNXS+bOhEwi9Q2r2VDgGuspHGZqBudmNjJRZfeRqQTjPWyf+TvUGw11S3eoZ+rRU7pWpPIevLisTrXHINxlD22O2fU0//2Q7GO/1Ao+N0o76Uf9E+3KQXtEa+KXLk+9ytUxY1wbPheNdeG7aqBP+qGvBJfyp3Xi3zpI7Fj8AcB9801Ur7+NyT13lXK1EZO77sB3/YefxeGf/S0O/+ip+kx91c/rlYAF9qb6sJ4txP+BS9j/tccxuftoRxlr5p/9ciHx9Ov5F39gkJcBuSC89oO/XgrTN26NWoAuiDZS9+ZzyWtwk3LQLNpGSy8c7OHwcIFVFbfARUH2HTaPKU5mrfiZ7BohVblyqn69PxcHI583XeDav2v0XxkXSXnCVWfLEFZU9LhjBDrvE2F/QzLzN96cyl9yLYyLzmVuueZKuVM214qDTS9sQpsFLw8ufeIoSmHvxAt9rbdxsM4c2F7gW+W9p3HQ6nVD4yBz6QzffjHKKnAWxN+HXPzx3+DgXz1eytnmOIeDj30Yez/8fsw//3dY/PUL9fG6TWIVtBGwmfjjg/di76cexezRB9oH4i1YPfsaVs9fRXZvz4L4D2ADDL8CEHRInSrniybJvRUUXrLpl/z8obg+bB047k/TTwdkySd5KaQbYrFhg1tzJyWcTlfn5uBgD7cbI0DfWC+6mdmSGEZeYs0TAFArBLq/uyR/4v2VZ9FaRH0ZpFBB0V4IloAK70Jd59Q3oNRdSm5tM/9s1ULl28eeDxr6bot6F4Clu89klkSrt3XS2Hlto/67Xvy7ZKmPU9l5O4HukObe4t7qbUNxz7xvIe79jAOBODVSJRrcKv4KvewfxsaBxR8A3NOvYvnca5h96HvX5LA/k3vuwoVf+Me48C8+gsVXvoHllVexevkNVFffggiwqBbYm8w6xd991wHc+++Ge//dmP7Q92PywPfsLH+aw/9zGd0d6hSL/xkxAMLG/6h/Uew6BTq9gLaL3o81CFypD0k5jdZ0113011Tfu9AYAZWoh+EaVTUy57xo1x9Ed2odvZ+SJ+KvM2A0uYkrGALixROYJEJriqYf9WssjnBd/Mw+tjqJLdPkNxhHyYZLn2BZ/MXkyQfURks7tsuYnwB6o6Rr446VGw79o2gffNbH0c8S6G0KdSS4RlrXho9ejmYctHrd0DjIXLYwDsKVMGhHGyAT/9bmewwb/lrEv74kWP3vy5j9p/uByY63gO1NsfdjH8Dej32gTmq+RPXqdch3bgO3FpDbC+D2HJjN4O7cg7vzAHjXAdy779zpEn8by6+8jOobr1vHEYs/MOQKgGrQ+bK0C4/oZUF8uMR4SKLMktErBp1ZSiKJeStmPfiJfa0R4OZfn/aFgz3cnsc9Abr7he6YGUOJJPtOrMQ4xCXRLStDSMeHV2f2q/KJ8j8J8Unzr1P1qMoNGzbmqGmVxep2YYrj8xAvuVajLHpx7Sv6WV4AZOsaZ2/Zf1OBbvO4ebnXCGX/YAUv51P8jb828S828JMXf8DBXbuB+eefxf5PPlos565w+zNMH7p30DR6I8D8M5czt5YvOKXiv3MzYNCfAATNRFYKbqk/pDPaRtJD5/DCGzcDxpfXNCcHqFUAI6Yo11ynW1BQ5B26cM054MJ+bQRIVSnB1gGj+JvK0On7ulHKbWIQ65J/KstqrMb4NsE4Fvm6duEAI22I+dWGui2q1LwNkBhHurVn4p9Un3cIeen8zb/NbNhkBUAJyxGNg82iKBsHfcP2F7D2dI9gExQuH03cW71tKO6Z9y3EvV/dphckeSln4Xhf01zzt3Xmfhp/A4q/j0E+9wyqR78fk3vfnRf1HLJ44hlUr74ZHc6e+A/CIAcBFbVSmm1hYTe9/c3eaqozDtlpgEFcbSOvvft0EO6GPfamkEdB9vOBF7iy7quz/kXnuzYCDpuVAF2WWutjGVIZS20BUf6ccoxCjvgWRIemRtVgoQKJOPsiDyX+MT/q+YyC8SEhg3YgsflNHuXMxL/wM1DBQEid11K1HASU0TNW2TD9FnHvF8e6AaZf2NxY2jzdntrdw8vRjINWrxsaB5nLFsZB2+UKlWqtPc72b4vzBMQfACaHSyx/58+x9xsfh7tr+7cEngWWT76Iw09/KTqcVfHf+GfO9ez+HAAnpjKCM/KKyNxK/hCFOA7yqQmt6kskqcNkhp3G32OFINsBH7JiByvv7WB/D5PJBPHg+/Ks3IbM/oETlfsk0xI/1tJfalgqT/q7ni1HA8U+UWHrKYml2IHC0kXupXVgUv7U+w5KYtba9JtMm+fD2x8kb7kk9i+UvvCXPhdfer48q7s8fOZZ/6mw9ln09nRLYf1f+b9Csh3FDllv+0/lqzWO9tBZmfLwvTKXOYWw68J3NK9SkSK7E/8wwA8s/uH6mzex+L0nIIdtz+yffVbPfBO3/9sXYuGLY5fndIt/eyvdnsEOAtLEjMepZ7YbHXmZIcqfWNHTdZUKbH6Py78Jlyq0s5K7LqprfiUgnBjYEtAeoWvrRIdUNg28+McZvTP1JKpifNfPzi2Hv9aVv3xIae0T5sUPSJ7ucMXVGjtYrstJC/Gmum5NVbLXYhgYHTF/uXHQaiBsYBysE9GdH/KTiqEU8tv1X5fBInm+yvXS7qX9Qj4aFovUGqKl73VXSbj3bZmuYz3D4u9dXn0Liz/8AlDpt3mcD1YvXsOt33kCWKmzWgJpuxif+AMDGAD+HADloP9RBQZE0nfnxb5RcqvDlJpyXj161m5ursv96bfc+ZuS3QMgOTlSmrKWBydIbQRMvBGQppstk+iNgkmEIXwal4v5LWXa+83alj7v35egpYmpnf1xM6GEdOsfQpPhVt+jkvjr1Dpn/vmdzf34NtE6ittL0H+5gK6bobcaBj2Ng7M48+/0ZIyIturvqBdVgOKVQnyZh654W7JsIu/IUxvidyl1iX9bFMVlf2n6yjGKv//41auYf+qLKArfGaV67U3c/q3PAfNl7ZD1Ec04xR8Y6jFA2ErwDv798+EkP++pQyRKnSj4VYFaw/sPUOmUPGt/JXwYSb6v8eM3Bla6YblS+ObRvmQmjeZ1vqUjdSFhGDJRZxUD1OLmzE6BrFHm2ao/1UcDC0QtUdT+XFxdaMZSH4f4QStr0DrBwiApJY9tLvGKlF7V3Il0fOudcIu3DfPS23shhS3CbkI/TVgnllsFW++hc6zeftiU8L92H4Iqn730EX8ft/P+RIU9AfH3//zfb+D2mzdx8Kv/9MzvCVh+6Ws4/J9/Bbk1rx0o/q0M9BRAYeSX1KVupOKXv5y9kiJpvPXadha2kETxnhuhE+tdGyVI/Fk3X4YYm36Tnv+UGgHeT3wkKLEGfDoOQfwzo0dsGeIKSR0mHUu09IfGpzYHmjwLgOYQnmwDpfanVxckyY2L/Slb7ADCzL/U7jcfvNt+5Ngyuk1ytFHc6z13jlU9Q+7WJmjxlLXzrRPoFfTobaRf8L5DrqSjc0n828al4O+UiH/TE90Lr+P2f/4M9n71n2D28O4OCjou5O1bOPzvf4HlV9Q7Dyj+nQz2GGAx86GGCqsAKIhySYQB+JlvyW8mVtIe59r8rqOUoLkU1To8IuiNAO9P9XEHJZquFu1ap21sxpgSsYfmuNq/PqgsDi4CczSz8lJfikaZWQ3Q44aomb9oNzWYODRL4g4TFTwaDmrwQ3qxY6hv0/SwlNsH6fjW6bWHtw1b0RZK3VFNR03EhjqKcbBBsHIMuxf3re9RS0Sid+ycA/H3DtObCyx++8+w+ukfwsHP/AhaX9R1ylhefgmHn/pifeiQ57yJ/wAWwSCPAdbEKgmNMa2PIF5xJt+hqTZeSbtCTL6PW3AXK8JBsiW2ff9ZxxOl3R/jGTutKXUTP1A/HTBvVgLsQK7DKfEvofLrrHOLQeUSf8oAaeo/CLS4YEzE8usmawemuH9A5U0pfrrC4guXzfz7qFqnaPi3AbaH6UeH8XGkuNd77hyrjhh35vsYxL079BFGsmMQ97aLUvq2TvyzwUc90txT/G2qw4m/9z91E6z+5Gm88/xVHPzcY5h+4JQc5lOg+vbbmH/mKSwvv2gvnEvx370FMMDLgGybzypn08gaEcqXom2s6e/nJrgOof1JjCUV9+Dm71XjoejPx2lucpKLJoL9/T3MF8v4FkHE44wAvyRvN1KG5qqehFDjTt3Y/Ol/ouO0GZakRhzUq3/DoBNCmnrxrvpJheLMH9E48T8LhLIo8S+R9YW2C1lAX/F57fdKaC0bBug0Vo4Y97pYeke3RbrHLO4bmGNbxR+dN49XmoOAas6P+HumboLlC9dw8zc/i+lD92L/o49i74cfBCapzxNABMu/fQWLP7+C1ZVXcxGn+Pdm8JcBtWdbVZ0Dwu/5zUc4qIN44k2rQ8WOlPUxqBvlEjdEadQZ86sAG2Q+T0y8AEvWr9OVj/3ZDPPlEpXfuGbeBGSFVEcUxFViHSHz5xIHX3cSLpnxRRAqKqsCbfTEIwqDo7kr8faZ8FWwBOOyZy5W/Xb7l2g6cuvLgHpFUvDaP8TROmbnWLXDdPuPIVuWZ4O4BxnKOsfy3RsOscVuIf7as2nok1Mh/l6IppMp4ByWX7+GW39wDfNLF7H3kz+IvZ/4ENzBXhpqcOTmIRZ/+RyWX3gW1Rs3vWviqfULKP45g+4BSOd7RbEOu9PL5Dv2y2sB9YyzCVMU/hCj2ZyWxpO6G7fEdsj8OSnuSYzdN1oa+3sztRKQlscWWhsv4fzRpIxOkNWLz6QXf4TTGNUKQRN+YoyOuOLSDEvR4JD6keFJqAcHOIfKf5OkktT9Ne2+j/j3dPOPmG3XVzbvXK0hBhTwNu+58wCDRS+j6Ajprg06YCk7I2q/6Pvo7sTfhcHOjiE2suMSf8/UTYDJDKtqher6DRx++kuYf+YpTD9wL6Y/cB+mD92HyYN3D2IQyK05qpdex+qla1i9eA2rr10FFiskz2OrAK1fcB7EfwgzYOcGgN5XHpqnasN5cxZTMi9mcPV9tsfxRmkU9f/8bjRxFSyOViHRfkuWSgnjT5XD51+0MRLPDPA/FxzszXA4XwbxjHlRqwB+bPDXXTR2dNy+Ckx9O2V8iM4BYO9C4yspd0jff5cmXZ3fxCDydRnMms6z/Qt9oe1CJ4LuFYBeUWyY7NHS6xyrdp3umiDSx9O2bCjuO8/FEay1Th/NwCSwE47txT9+PS3i76mNAMGqWtVlPlxgeeU1LJ99rfYwcZh873dj9gP3YfrgPXDvvhO4Yx9O/RV/OhCB3JpD3pkD78wh7xyiun4T1UvXsHrpGqpvvVkYIEYs/gN00WFWAEy7DVVXnHGbZeSss0QR0h3Nz091H9Kh0s3uJq3UGCkYD/6QnuJKgupt6c8GpmmaDCV+fXuQZiVguYyPCGoTpyUB2/icn9zbMjlbZv1GQL2qEjY3qjzZDY9xx795zr9JSJoL+iVM4j36mb8+r6BD/EsXerV5keyhgh6BNg3QK6ojysqR0u6+NMDo0e/mDJX6mkjbL+4iLyKhe9iIU/Ev7fZPA5xi8fcBpm4C54ClVLkCVhXkm9ex+OZ1LD7/rBn/HFD/snGwVxsFB3vAfAl5Zw65fQgzg9AFKQo1xX/X7H4TYGHGHd4ImKwCxB6kf1FD7ikUvjzV7zQuop6mJ9bW/nRDzXtTOyrepA+Hz3bWbgNof2FPgGqgzu8pSCIz2yH1SYqC+jG+8BIfP/NPhwY1binRzmb+3pdPSpKfXlxhQ6LpyA7qScFMjLK+gH6UO0Opd8VLm/WdYQV6WFnaJspuTwONOz0iLvfz4dPul0r4WU0HG0j8bbDjF/8Qzk0wnQArc2ywHRcy8fdj7+0FcGuRyBrFv5yn4xF/YJAVANPyTCvQzVqA5BG8qPhhqbzxFH5Bj/qGuArQPvDH6apyToyRkEexweBQmA1nul8quf1eCKBF0V/yKwFS+QOGbUbVU4ZN3Tjbf5yOXwqPXCJWXuPX34MQpjFMJlD+mrDWDrPiLwBcZa978Q9u6kNre17T0Ns7w7pNgFuSNOVennec9jYeBxwvNkigfy52nt9tG1gvH42/7B3n+urRxL/t8C13guLv/UyajYorqdBL/AvZo/hvK/6779nDnAOQ1JbXnvSZe98HzIK+9+fDJUsKwa+v7GRVoZSVdVnNBvoOsY5ugvCa3aZcXQmGVYDEAtFp7s/qjYHxsCC7bjBpXEvGii5VKJMR6mZOr2b06bTfv1Y42gq1oxmc1Fp/uGuhM7gO8Zesz6flL3zsRXgDXVvcW8d8BLYQ8GPL3Q4EfLC8dka8fao7ya9po5WdtwR6ir/6asW/5fUsp0D8/YeJmwAiqFLfFH+cJfEHBn4MsBZwJGtBCDc818tGVNMqLz2n56A6Raz6RAutm297zkyYwyWg1EnaLsQIQznbgvh0fQcpGAo+jr3ZDMvlEpXqeNFQUV0+LAXof5r8SBR8fzUaEPa+6KykHTfsRvZ5cXGHcqh+g348M+3ogqows+lDqelbt+QgoI37SjnAMZoLWyS6Xe4GLdPayDdPfWf53bFh4cWhl/jHDmwDZOLfMos4ReLvw0YjoKL4H5f4D9B5BzEABChvwvOze4HdlKb+rd1iV6jFKpmpIoYv9ZdiflI3f3ONgCZtU5ch2CB+2atpJuHetD+eqNOLTaW+Wuors9kMy+UqPlpncqgj1MLujafoV/9sYPbghbFL59nuS5BKrQI0lZG1P4kHoop6sY8eNHw6aYcsDSx923fubwdPAfRlo2T6eT42Q6NXQkfPzSDl2bGAHz35uDTm+02v430Vufin7jiV4u+ZOAfBBNLsCaD4ny3xB4Y5CTAoSTYDhhXatDvU3aA0vKPe4KamveFdAmKfCagNBpQ3/PkMmkaaOkTPeR677kLs8GnaWVtIm1bBQtmbTTFfrqArT9tBfqd/aLB59kOu/Bn/FexKhRMXlv31zRJJDBOn9mWoyENjdb7+xR7K11g9ZvzIctpO3hlaPdoRcrMUeroOTO9Eh8vdYDGvjfhEavxIKVdpSKPOuxf/Urj043GKv780EQe4CcQ/HVAKR/E/leIPDLICEG+Ec4gz38ZBdKF8P/EVbif6luJRfU2KST8p6Glw05WsJK0YJouh+f0+HgLiUPw9X4dSA0P8GK2LcD2xQwS1EbBcVY2FrSwov2rRNCzXVJ5L+tjE2XR1Ic1jlDpdPWiEexbz58sesu0QXviTDxr5ukh8/4Mta0pf8ZfG4+ArABtFv5u8HIss9krk5AS6xM5y0xpRL6szNGJ7GNB4xN9frw8Ki4eBUfy1v92J/xC9cLg9AM19d/FjTaOZot2DEIb97y3R6ZhceN68js/FY3h9fC0zcdNfC9fTRxZRylOhfYacKXHvMFsQVy/a45pNp1gC9bHBDlBv+oX4QjSdJu70VyIbLJ9YgxNdk856icv+DnrZX3eWMDY5u/IiQNipHAeRwiN/W7TkopEQbqi4rSLtkcbg9E70dIlwyiC564z0ZOvD//hlzgWBXSEzg2D0FmPYQPxjbKdL/GPq9Zs/K+OX4n+axR8YehOgaoi1OMCuAmQBYDtSdrltE5nE5+ZVYH0zfcdMZ8k63T7OImq5Gy42ntQ+zxpD9BIEN4u7lA9pjIBlXZ9mlHEI7yAILpKtJJhl/2T2Hh61TJb9rfinA4SE3/xNuy+OHoVL6SSp5G8dpY691t/GEZ9aBs9lrwTORl1tw7qSmUdtS7OMVPxFr/CtE/+WJwFOqfh7nDRGQBgVKP7lPG0p/gOscg5wFLAXagkO+kAY5SlUpn2NbXIbMlHUDiX5VT4LFyT5XIo63BSX3KggsbotO+Mvy4PKqc2bqBl0wdo3AwYwm86wXNV7AvTxvsaoCOONr5fYQUIVi6pvnZbKsKhjO8PbffU9TDf8JVa/JGcUhOEgOKiTAbOCd35tCSJH6hwnImPbWTqjZWe1sCNLUURiV8uiKIi/8tR3w5/tIadb/ONw709nofiX83R6xB8Y6HXA5ruYfhBWAVqlWImwy6+Gz8Et1JnopmfvqCC+YbAlv0759Uppu2namrOShkYf0k9LWLAGSn0kbQfeSJhNJ40RgDhjb8pmj9q2Db42DBqTrCT+Omx4UZA+cRDhmV9xDhNJ2r26GfrZYJNIukKSeilcaPWXx++kFAHZmsFqsjPiM3T/nKDwWyF2I/6p/A8o/mir9c3Fv/7YjBs6bYr/qRR/AOg8Qe2V6zf2AXwYwEeav0cATLsifPk7+NHFCvuAapAlvdTLAmlbL6m0clvn/TgZNG2Xp1EBuHm4wqoSdb2ZjBgDxyXfEfYFeKNAJ+OU1aKv63voT2goW1F5O9LGWi+k269kMdafL65eWFTLm8f/flIyWu50FxeXFpfqNqcarekfZd3KOU12zzo93WVme0XVIf5987LT+s2FessYNrjQcDD7++q977myxtcKwBUATzZ/Tz9w6eK8zXPRAHjl+o2LAP4LgH8N1GJOTg8C4MbhCotVvdnPDzp+fCkJ+Hp/iRGR+YvXdbyEEEJOLXMAfwjgPz5w6eKN9GJmALxy/cbHAPw+gPcdR+7IdngjYNU8IUjxJ4QQ0sLLAD75wKWLf6odzXbTV67f+E0AnwPF/9TjAFw8mGI2dRR/QgghXbwPwOcajQ+EFYCX/9+NXwbwP04gY+QICICb8wqrSjYXf70noOiP4k8IIeeMX3nf91z8FNAYAC+98fb9AJ4BcOlk80W2QQC8M6/qQzgSUS9t9tNH/7b7sxv+KP6EEHIuuA7g0YfuvuvqDACqSn4XFP8zzYWZw62F1CcGelx8giS+PMnV7zLXjw1pf96zf9FP6TEZQgghZ5VLAH4XwM+5r1596x8CuHzCGSI7QADcXlSoJHkk0PmZ/pqZf+FRP878CSHkXPLYrKrksZPOBdkd+1OHw2UFqRAO/nH6g57KpysEzZSfM39CCDn3PDZbCWgAnDP2phMcLkWddOXM4Yth5q/E34ma+ZdOFSOEEHKeeGy2Eq4AnEdmU2C+8kf9ihV7wBxL7PwLjij+hBAyFh6bVZU8ctK5IMMwc8BCBFUFM7sH9M8DXPYnhJAR8shsJXgewI+edE7IMEycw1Lql/S4ZOc/l/0JIWS0PD+rKrkMGgDnmgmASs38wxOByYstOPMnhJDRcHm2Ejx10rkgx0vLy/sIIYSMh6f8CgAhhBBCxsPl2UrkSQBPAPjoSeeGEEIIIYPzBIAnnYjg88+9/j4ATwO464QzRQghhJDheBvAhx//0D0vh7cBPvHVa58E8Hsnmi1CCCGEDMmvf/The38fUK8DBoA/vXLtDwD8m5PKFSGEEEIG479+7JF7f81/MQYAAPzJ33375wH8NoB7jjljhBBCCNk9rwP4tx//wfs+rR0zAwAA/viZq3cD+C0AvwieD0MIIYScRQTA/wLw7z7x6P1vpBeLBoDns09ffQ+AxwB8pPl7BMB0mHwSQggh5AisAFwB8GTzd/lnP3z/W22eOw0AQgghhJxPJiedAUIIIYQcPzQACCGEkBFCA4AQQggZITQACCGEkBFCA4AQQggZITQACCGEkBFCA4AQQggZITQACCGEkBFCA4AQQggZITQACCGEkBFCA4AQQggZITQACCGEkBFCA4AQQggZITQACCGEkBFCA4AQQggZITQACCGEkBFCA4AQQggZITQACCGEkBFCA4AQQggZITQACCGEkBFCA4AQQggZITQACCGEkBFCA4AQQggZITQACCGEkBFCA4AQQggZITQACCGEkBFCA4AQQggZITQACCGEkBFCA4AQQggZITQACCGEkBFCA4AQQggZITQACCGEkBFCA4AQQggZITQACCGEkBFCA4AQQggZITQACCGEkBFCA4AQQggZITQACCGEkBFCA4AQQggZITQACCGEkBFCA4AQQggZITQACCGEkBFCA4AQQggZITQACCGEkBFCA4AQQggZITQACCGEkBFCA4AQQggZITQACCGEkBFCA4AQQggZITQACCGEkBFCA4AQQggZITQACCGEkBFCA4AQQggZITQACCGEkBFCA4AQQggZITQACCGEkBFCA4AQQggZITQACCGEkBFCA4AQQggZITQACCGEkBFCA4AQQggZITQACCGEkBFCA4AQQggZITQACCGEkBFCA4AQQggZITQACCGEkBFCA4AQQggZITQACCGEkBFCA4AQQggZITQACCGEkBFCA4AQQggZITQACCGEkBFCA4AQQggZITQACCGEkBFCA4AQQggZITQACCGEkBFCA4AQQggZITQACCGEkBFCA4AQQggZITQACCGEkBFCA4AQQggZITQACCGEkBFCA4AQQggZITQACCGEkBFCA4AQQggZITQACCGEkBFCA4AQQggZITQACCGEkBFCA4AQQggZITQACCGEkBFCA4AQQggZITQACCGEkBFCA4AQQggZITQACCGEkBFCA4AQQggZITQACCGEkBFCA4AQQggZITQACCGEkBFCA4AQQggZITQACCGEkBFCA4AQQggZITQACCGEkBFCA4AQQggZITQACCGEkBHy/wF4Ev+/1c/FDAAAAABJRU5ErkJggg==;clipPath=inset(15.67% 0% 17.33% 0%);" vertex="1" parent="1">
          <mxGeometry x="-260" y="625.38" width="73.5" height="49.245" as="geometry" />
        </mxCell>
      </root>
    </mxGraphModel>
  </diagram>
</mxfile>
